<?xml version="1.0" encoding="utf-8" ?>
<svg xmlns="http://www.w3.org/2000/svg" xmlns:xlink="http://www.w3.org/1999/xlink" width="2048" height="2048">
	<path fill="#013946" d="M1289.23 1582.79C1295.6 1582.32 1301.6 1582.97 1307.92 1583.69L1302.98 1592.56C1300.23 1590.57 1299.12 1589.88 1295.66 1590.37C1294.2 1590.58 1292.77 1591.17 1291.38 1591.66C1291.04 1591.78 1290.68 1591.85 1290.34 1592.01C1282.88 1595.4 1279.44 1605.71 1272.41 1609.29C1276.15 1599.26 1282.68 1591.12 1289.23 1582.79Z"/>
	<path fill="#012C3C" d="M1443.28 1295.45C1435.45 1293.91 1427.85 1293.37 1422.12 1287.26C1422.08 1285.9 1421.7 1285.17 1422.69 1284.07C1427.53 1278.66 1438.57 1278.42 1445.3 1277.46L1447.56 1278.8C1445.77 1279.9 1444.63 1280.15 1442.61 1280.6L1445.24 1282.33C1443.88 1284.73 1441.88 1288.99 1439.61 1290.44L1441.51 1291.15L1439.01 1291.48C1441.71 1292.11 1442.45 1292.07 1444.36 1294.03L1443.28 1295.45Z"/>
	<path fill="#82B07F" d="M491.767 725.153C493.891 724.906 495.787 724.689 497.927 724.96C501.049 725.355 506.701 728.711 508.261 731.517C509.628 733.976 509.302 734.672 508.575 737.179C506.033 739.355 504.468 739.36 501.235 740.012C500.892 740.082 500.555 740.191 500.207 740.224C496.906 740.538 489.513 738.573 487.037 736.395C484.905 734.522 484.856 733.507 484.679 730.906C486.27 727.709 488.758 726.736 491.767 725.153Z"/>
	<path fill="#013946" d="M562.088 1361.54C558.183 1361.84 552.554 1362.9 548.79 1361.94C545.492 1361.09 543.528 1359.74 541.726 1356.8C541.366 1354.45 541.289 1352.82 542.467 1350.65C544.264 1347.36 546.329 1345.91 549.732 1344.71L562.981 1345.34L562.861 1346.84C562.468 1351.4 561.988 1355.29 559.723 1359.35C560.191 1360.57 561.039 1360.82 562.088 1361.54Z"/>
	<defs>
		<linearGradient id="gradient_0" gradientUnits="userSpaceOnUse" x1="1517.2151" y1="1354.4587" x2="1533.8047" y2="1362.5508">
			<stop offset="0" stop-color="#002A39"/>
			<stop offset="1" stop-color="#054149"/>
		</linearGradient>
	</defs>
	<path fill="url(#gradient_0)" d="M1531.07 1368.27C1525.62 1366.65 1511.61 1366.5 1508.04 1363.12C1508.19 1361.66 1508.36 1360.5 1509.27 1359.27C1514.08 1352.79 1541.75 1350.41 1550.32 1348.48L1551.79 1349.9L1551.43 1351.58L1552.04 1351.88L1550.77 1352.24L1548.87 1352.8L1547.74 1353.12C1542.72 1354.59 1534.83 1358.16 1532.45 1363.22C1531.72 1364.79 1531.36 1366.58 1531.07 1368.27Z"/>
	<path fill="#82B07F" d="M1619.29 808.148C1625.77 807.835 1633.2 807.657 1639.11 810.771C1641.55 812.054 1641.88 813.103 1642.46 815.663C1640.65 819.742 1637.7 820.756 1633.92 822.809C1630.96 823.821 1627.32 824.896 1624.18 824.889C1620.85 824.881 1615.14 822.739 1613.27 819.92C1612.44 818.664 1611.97 817.196 1612.29 815.72C1613.13 811.921 1616.18 810.026 1619.29 808.148Z"/>
	<path fill="#013946" d="M359.158 1375.61C354.882 1365.48 346.887 1369.4 339.968 1363.36C338.749 1362.3 339.153 1361.81 339.167 1360.35C344.761 1354.31 380.687 1345.1 389.211 1344.83C392.891 1344.72 394.627 1346.23 397.087 1348.59C396.642 1348.79 396.207 1349.02 395.753 1349.2C392.953 1350.33 391.058 1350.03 388.222 1349.46C379.735 1347.75 369.941 1352.43 363.071 1357.05C360.864 1358.53 359.86 1359.43 358.953 1361.9C358.612 1366.4 361.995 1371.14 360.788 1374.99L359.158 1375.61Z"/>
	<path fill="#F27155" d="M1816 1649.36L1817.03 1648.61C1819.1 1647.1 1822.01 1645.39 1822.54 1642.68C1823.03 1640.23 1822.45 1638.12 1820.79 1636.26C1818.04 1633.17 1813.17 1631.42 1812.28 1627.24C1814.46 1624.78 1817.95 1622.02 1821.35 1621.71C1824.07 1621.46 1825.68 1622.08 1827.69 1623.91C1832.69 1628.47 1833.16 1639.34 1832.9 1645.51C1832.75 1648.93 1832.28 1652.57 1831.13 1655.79C1829.12 1657.31 1827.26 1658.59 1824.85 1659.39C1821.82 1660.38 1817.98 1660.04 1815.23 1658.36C1812.92 1656.95 1812.49 1655.51 1811.87 1653.03C1813.22 1650.51 1813.36 1650.54 1816 1649.36Z"/>
	<path fill="#82B07F" d="M1514.91 964.436C1521.13 968.524 1530.12 971.91 1534.01 978.467C1536.97 983.462 1537.23 992.423 1535.43 997.903C1534.9 999.528 1533.44 999.799 1532.03 1000.59C1526.73 1000.47 1521.88 1000.73 1517.44 997.428C1512.81 993.98 1509.67 989.128 1509.06 983.322C1508.34 976.369 1510.69 969.842 1514.91 964.436Z"/>
	<path fill="#F7EBE3" d="M294.825 1624.2C296.704 1624.09 298.88 1623.85 300.748 1624.19C303.378 1624.67 305.572 1626.61 307.043 1628.76C310.507 1633.83 310.42 1640.2 309.028 1645.94C307.323 1652.99 304.488 1656.25 298.34 1659.9C298.246 1659.88 298.151 1659.86 298.058 1659.84C292.821 1658.67 289.011 1656.54 286.263 1651.78C283.483 1646.96 283.108 1641.12 284.695 1635.84C286.43 1630.07 289.699 1627.06 294.825 1624.2Z"/>
	<path fill="#76A98E" d="M576.889 943.075C579.082 943.141 581.445 943.134 583.567 943.732C587.724 944.903 591.483 948.386 593.39 952.198C595.305 956.029 595.681 960.518 594.105 964.532C592.019 969.849 587.616 972.612 582.538 974.637C579.013 974.817 575.302 974.536 572.041 973.085C568.433 971.479 565.655 968.236 564.344 964.537Q564.082 963.787 563.897 963.014Q563.713 962.241 563.609 961.453Q563.504 960.665 563.481 959.87Q563.458 959.076 563.516 958.283Q563.574 957.491 563.713 956.708Q563.852 955.925 564.07 955.161Q564.288 954.397 564.583 953.659Q564.878 952.921 565.247 952.217C567.852 947.208 571.721 944.879 576.889 943.075Z"/>
	<path fill="#EE7B85" d="M374.315 1636.73C374.392 1632.66 375.008 1629.16 378.003 1626.15C380.289 1623.86 383.265 1622.97 386.445 1623.25C390.809 1623.63 394.772 1626.3 397.299 1629.79C400.73 1634.54 401.437 1640.59 400.19 1646.21C399.186 1650.74 396.486 1654.74 392.497 1657.16C389.318 1659.08 384.9 1660.09 381.294 1658.79C378.859 1657.92 376.577 1656.23 375.456 1653.82C373.981 1650.66 374.237 1647.59 374.783 1644.26L374.315 1636.73Z"/>
	<path fill="#F7C6BB" d="M374.315 1636.73C374.607 1636.76 374.898 1636.8 375.19 1636.83C379.157 1637.22 382.618 1636.58 386.5 1635.82C388.83 1636.78 389.661 1638.04 391.179 1639.96C391.655 1642.6 391.505 1642.59 390.169 1644.96C387.99 1646.39 386.367 1647.38 383.656 1646.86C382.233 1646.6 380.613 1645.7 379.268 1645.15C377.727 1644.53 376.824 1644.65 375.274 1644.46C375.098 1644.44 374.947 1644.33 374.783 1644.26L374.315 1636.73Z"/>
	<path fill="#C45355" d="M1793.6 1653.22C1791.61 1655.18 1789.37 1657.18 1786.88 1658.49C1784.16 1659.92 1780.97 1660.23 1778.11 1659.01C1774.36 1657.42 1772.04 1654.11 1770.68 1650.38C1768.32 1643.94 1768.65 1636.04 1771.83 1629.92C1774.33 1625.13 1777.86 1623.52 1782.83 1621.99C1788.78 1623.34 1792.64 1625.13 1795.91 1630.5C1798.58 1634.88 1798.95 1640.64 1797.5 1645.5C1796.68 1648.25 1795.26 1650.89 1793.6 1653.22ZM1784.19 1626.42C1780.39 1629.07 1779.74 1630.26 1778.95 1634.81C1777.98 1640.4 1777.81 1644.81 1779.6 1650.24L1781.52 1652.08C1784.19 1651.7 1784.58 1651.53 1786.44 1649.38C1787.25 1648.44 1787.96 1647.11 1788.6 1646.06C1789.23 1643.1 1789.87 1640.12 1789.76 1637.07C1789.59 1632.15 1787.71 1629.64 1784.19 1626.42Z"/>
	<path fill="#EE7B85" d="M326.035 1636.06C327.47 1633.13 328.893 1629.92 330.878 1627.33C334.057 1623.17 337.852 1621.98 342.851 1621.31C347.127 1622.44 350.005 1623.64 352.345 1627.58C355.74 1633.29 355.66 1640.39 353.688 1646.58C352.065 1651.67 348.746 1656.88 343.857 1659.36C340.881 1660.87 337.588 1661.09 334.483 1659.84C331.013 1658.45 328.909 1655.93 326.906 1652.85C327.642 1646.93 326.95 1641.9 326.035 1636.06Z"/>
	<path fill="#013946" d="M448.334 1308.75C451.478 1303.44 477.135 1291.09 483.621 1289.4C484.818 1289.09 485.932 1288.98 487.162 1288.88C489.892 1291.15 490.171 1294.28 490.482 1297.7C491.842 1312.61 490.823 1328.02 491.568 1343.04C500.101 1343.1 525.393 1340.32 530.867 1345.82C532.007 1346.97 532.43 1348.43 532.473 1350.05C532.576 1353.97 528.813 1358.81 526.613 1361.85C514.535 1361.86 502.383 1361.59 490.322 1362.27C488.495 1341.3 487.288 1320.61 488.519 1299.53C487.462 1298.11 486.496 1296.76 485.653 1295.2C485.442 1294.81 485.248 1294.41 485.045 1294.02C481.97 1293.06 478.405 1294.73 475.616 1296.01C471.063 1298.11 468.072 1301.3 463.999 1303.89C460.731 1305.97 456.822 1307.22 453.72 1309.52C446.07 1315.21 452.393 1327.93 449.575 1335.4C447.619 1326.98 450.007 1318.13 448.5 1309.59C448.45 1309.31 448.389 1309.03 448.334 1308.75Z"/>
	<defs>
		<linearGradient id="gradient_1" gradientUnits="userSpaceOnUse" x1="1589.9878" y1="877.58405" x2="1601.1041" y2="919.5368">
			<stop offset="0" stop-color="#3A9562"/>
			<stop offset="1" stop-color="#61B37B"/>
		</linearGradient>
	</defs>
	<path fill="url(#gradient_1)" d="M1560.96 877.964C1578.6 881.755 1623.91 889.148 1634.1 903.597C1634.92 904.758 1635.09 905.897 1635.23 907.27C1634.41 910.528 1631.19 912.618 1628.42 914.212C1625.25 916.04 1621.8 916.883 1618.28 917.785C1612.64 914.876 1607.21 911.534 1601.33 909.111C1589.28 904.139 1576.12 901.001 1563.75 896.747C1563.43 890.502 1559.62 885.646 1559.29 879.602L1560.96 877.964Z"/>
	<path fill="#76A98E" d="M953.576 224.796C962.843 224.966 971.501 227.718 979.286 232.782C987.079 237.85 993.919 245.954 995.735 255.284C997.102 262.306 996.014 268.183 992.061 274.032C991.629 274.298 991.211 274.588 990.765 274.829C987.084 276.822 983.567 276.459 979.668 275.355C970.028 272.626 961.76 263.21 957.222 254.613C952.41 245.498 950.484 234.749 953.576 224.796Z"/>
	<path fill="#164955" d="M796.022 1581.41C803.637 1581.46 811.274 1581.87 818.886 1582.14C817.805 1596.54 817.851 1611.08 817.438 1625.51C817.084 1637.86 815.968 1650.74 817.217 1663.03C811.345 1664.03 803.828 1662.67 797.818 1662.26C798.158 1635.8 799.306 1607.65 796.022 1581.41Z"/>
	<path fill="#76A98E" d="M1569.13 524.343C1574.82 523.682 1579.8 523.344 1585.31 525.365C1590.52 527.28 1595.19 530.911 1597.5 536.062Q1597.85 536.848 1598.12 537.666Q1598.39 538.484 1598.58 539.325Q1598.77 540.165 1598.87 541.021Q1598.97 541.876 1598.98 542.737Q1599 543.598 1598.93 544.457Q1598.85 545.315 1598.7 546.161Q1598.54 547.008 1598.3 547.835Q1598.05 548.661 1597.73 549.459C1594.53 557.409 1587.35 560.937 1579.94 564.041C1574.28 564.367 1568.33 564.878 1562.75 563.702C1557.6 562.615 1552.03 560.219 1549.23 555.494C1547.19 552.046 1547.06 548.021 1548.3 544.27C1551.49 534.683 1560.64 528.769 1569.13 524.343Z"/>
	<path fill="#76A98E" d="M939.062 936.379C941.837 936.801 943.789 937.021 945.803 939.224C956.791 951.24 963.972 973.781 961.942 990.014C960.801 999.144 958.482 1003.9 951.245 1009.44C949.756 1008.79 948.288 1008.11 946.878 1007.29C938.159 1002.27 932.259 992.517 929.696 983.009C925.226 966.428 930.679 950.56 939.062 936.379Z"/>
	<path fill="#689E61" d="M1213.11 297.908C1214.19 298.031 1215.22 298.231 1216.27 298.501C1221.35 299.813 1224.56 302.221 1227.14 306.827C1231.78 315.091 1230.75 327.574 1228.33 336.404C1225.1 348.185 1218.28 360.859 1207.61 367.159C1206.14 367.613 1204.54 368.209 1203.03 368.438C1200.3 368.85 1199.89 368.858 1197.79 367.343C1191.56 355.403 1191.58 334.276 1195.03 321.391C1197.91 310.599 1203.49 303.361 1213.11 297.908Z"/>
	<path fill="#164955" d="M374.519 1281.16C379.404 1280.86 383.749 1280.93 388.386 1282.69Q388.985 1282.92 389.572 1283.18Q390.159 1283.43 390.732 1283.72Q391.305 1284.01 391.862 1284.33Q392.419 1284.64 392.96 1284.99Q393.5 1285.33 394.021 1285.71Q394.543 1286.08 395.045 1286.48Q395.546 1286.88 396.027 1287.3Q396.507 1287.72 396.965 1288.17Q397.423 1288.62 397.857 1289.09Q398.291 1289.57 398.7 1290.06Q399.109 1290.55 399.492 1291.07Q399.876 1291.58 400.232 1292.11Q400.588 1292.65 400.916 1293.2Q401.244 1293.75 401.543 1294.32Q401.843 1294.88 402.112 1295.46Q402.382 1296.05 402.621 1296.64Q402.854 1297.22 403.056 1297.81Q403.259 1298.4 403.431 1299.01Q403.603 1299.61 403.744 1300.22Q403.886 1300.82 403.996 1301.44Q404.106 1302.06 404.184 1302.68Q404.263 1303.3 404.31 1303.92Q404.356 1304.54 404.371 1305.17Q404.386 1305.79 404.369 1306.42Q404.352 1307.04 404.303 1307.67Q404.255 1308.29 404.174 1308.91Q404.094 1309.53 403.981 1310.15Q403.869 1310.76 403.726 1311.37Q403.583 1311.98 403.409 1312.58Q403.235 1313.18 403.03 1313.77Q402.825 1314.36 402.591 1314.94Q402.357 1315.52 402.093 1316.09C398.328 1324.08 392.364 1327.54 384.37 1330.41C379.248 1330.57 374.365 1330.83 369.533 1328.79Q368.939 1328.54 368.358 1328.26Q367.777 1327.99 367.211 1327.68Q366.645 1327.37 366.095 1327.04Q365.544 1326.71 365.012 1326.34Q364.479 1325.98 363.966 1325.59Q363.452 1325.21 362.958 1324.79Q362.465 1324.38 361.993 1323.94Q361.521 1323.5 361.071 1323.04Q360.622 1322.58 360.196 1322.1Q359.77 1321.62 359.369 1321.11Q358.968 1320.61 358.593 1320.09Q358.218 1319.56 357.87 1319.02Q357.521 1318.48 357.201 1317.92Q356.88 1317.36 356.588 1316.79Q356.296 1316.22 356.033 1315.63Q355.77 1315.04 355.537 1314.44Q355.308 1313.87 355.108 1313.29Q354.909 1312.71 354.74 1312.12Q354.571 1311.52 354.433 1310.93Q354.295 1310.33 354.189 1309.72Q354.082 1309.12 354.007 1308.51Q353.932 1307.9 353.889 1307.28Q353.846 1306.67 353.835 1306.06Q353.824 1305.44 353.845 1304.83Q353.866 1304.21 353.919 1303.6Q353.972 1302.99 354.056 1302.38Q354.141 1301.77 354.257 1301.17Q354.373 1300.56 354.521 1299.97Q354.668 1299.37 354.847 1298.78Q355.025 1298.19 355.234 1297.61Q355.442 1297.04 355.681 1296.47Q355.919 1295.9 356.187 1295.35C360.05 1287.55 366.584 1283.89 374.519 1281.16Z"/>
	<path fill="#164955" d="M1551.55 1280.34C1556.75 1280.17 1562.28 1281.16 1566.8 1283.83Q1567.35 1284.15 1567.88 1284.5Q1568.41 1284.84 1568.92 1285.22Q1569.43 1285.59 1569.92 1285.99Q1570.41 1286.39 1570.87 1286.82Q1571.34 1287.25 1571.79 1287.7Q1572.23 1288.15 1572.65 1288.62Q1573.07 1289.1 1573.46 1289.59Q1573.86 1290.09 1574.22 1290.6Q1574.59 1291.12 1574.93 1291.65Q1575.27 1292.19 1575.58 1292.74Q1575.89 1293.29 1576.17 1293.86Q1576.45 1294.43 1576.7 1295.01Q1576.95 1295.59 1577.17 1296.19Q1577.39 1296.78 1577.57 1297.39Q1577.76 1297.99 1577.91 1298.6Q1578.07 1299.22 1578.19 1299.84Q1578.32 1300.46 1578.41 1301.08Q1578.5 1301.7 1578.56 1302.32Q1578.62 1302.95 1578.65 1303.57Q1578.68 1304.2 1578.67 1304.83Q1578.67 1305.46 1578.63 1306.08Q1578.59 1306.71 1578.52 1307.33Q1578.45 1307.96 1578.34 1308.58Q1578.24 1309.2 1578.1 1309.81Q1577.97 1310.42 1577.8 1311.03Q1577.63 1311.63 1577.43 1312.23Q1577.23 1312.82 1577 1313.41Q1576.77 1313.99 1576.51 1314.56Q1576.25 1315.13 1575.96 1315.69Q1575.67 1316.25 1575.35 1316.79Q1575.03 1317.33 1574.68 1317.85Q1574.33 1318.38 1573.96 1318.88C1569.02 1325.58 1562.49 1328.22 1554.48 1329.27C1550 1328.94 1545.42 1328.59 1541.41 1326.37C1534.1 1322.32 1528.29 1315.46 1526.45 1307.22C1525.17 1301.53 1526.11 1295.67 1529.58 1290.92C1534.91 1283.64 1543.14 1281.67 1551.55 1280.34Z"/>
	<path fill="#012C3C" d="M863.636 1581.51C865.848 1581.49 865.564 1581.13 867.435 1582.66C871.212 1593.61 868.105 1631.21 867.743 1644.57Q884.117 1644.79 900.449 1645.98L901.334 1662.23L889.247 1662.57C876.228 1663.39 862.952 1662.56 849.931 1662.03C850.366 1635.26 849.416 1608.45 849.774 1581.65L863.636 1581.51Z"/>
	<path fill="#164955" d="M1229.08 1582.57C1236.39 1581.86 1243.63 1581.19 1250.97 1581.05C1254.81 1588.84 1261.34 1606.7 1268.73 1611.44C1271.19 1611.14 1270.82 1610.97 1272.41 1609.29C1279.44 1605.71 1282.88 1595.4 1290.34 1592.01C1290.68 1591.85 1291.04 1591.78 1291.38 1591.66C1292.77 1591.17 1294.2 1590.58 1295.66 1590.37C1299.12 1589.88 1300.23 1590.57 1302.98 1592.56C1294.55 1605.51 1287.54 1619.07 1277.27 1630.69C1276.14 1641.55 1277.22 1652.59 1277.84 1663.47Q1268.75 1663.07 1259.65 1662.9C1259.64 1654.25 1260.35 1644.67 1258.79 1636.17C1256.4 1623.19 1247.18 1613.35 1240.38 1602.48C1236.34 1596.02 1232.66 1589.29 1229.08 1582.57Z"/>
	<path fill="#76A98E" d="M935.124 1028.77C937.195 1029.64 938.183 1030.64 939.155 1032.73C943.201 1041.43 939.716 1054.42 936.126 1062.92C928.227 1081.61 914.408 1099.22 895.414 1107.06C892.717 1106.45 892.367 1106.35 890.417 1104.41C886.996 1094.39 890.513 1079.9 894.09 1070.17C901.82 1049.13 915.187 1037.9 935.124 1028.77Z"/>
	<path fill="#DEB242" d="M747.319 437.855C750.284 437.831 753.291 437.794 756.249 438.014C769.671 439.012 811.428 454.812 819.473 465.071C821.52 467.68 822.804 470.662 822.159 474.054C821.286 478.644 818.577 481.6 814.937 484.256C812.279 484.348 809.568 484.46 806.908 484.308C789.173 483.297 755.332 473.809 742.991 459.69C740.382 456.706 738.693 453.337 739.249 449.275C739.975 443.964 743.354 441.049 747.319 437.855Z"/>
	<path fill="#3F9CA4" d="M1239.67 223.32C1242.48 222.926 1246.23 222.507 1248.92 223.514C1250.96 224.28 1252.66 226.135 1253.28 228.221C1255.47 235.672 1249.55 247.599 1245.38 253.486C1232.09 272.241 1220.13 272.505 1199.22 275.901L1183.82 276.703C1185.15 265.218 1187.27 254.99 1194.59 245.572C1205.55 231.477 1222.54 225.394 1239.67 223.32Z"/>
	<path fill="#DEB242" d="M822.248 1023.73C824.548 1024.73 826.696 1025.87 828.708 1027.39C835.163 1032.26 838.22 1040.75 839.083 1048.53C841.985 1074.69 829.665 1103.97 813.538 1123.86C811.423 1125.43 808.745 1127.08 805.995 1127.09C804.653 1127.1 803.516 1126.96 802.563 1125.98C799.986 1123.33 799.713 1118.05 799.555 1114.57C798.891 1099.93 805.778 1087.23 808.375 1073.24C810.714 1060.63 810.156 1045.37 814.845 1033.45C816.242 1029.9 819.735 1026.57 822.248 1023.73Z"/>
	<path fill="#013946" d="M933.458 1581.45C937.125 1593.73 945.661 1603.19 951.845 1614.16C954.659 1606.99 958.351 1599.05 962.719 1592.72C965.695 1588.41 970.027 1583.63 975.485 1582.76C979.124 1582.18 984.032 1582.47 987.028 1584.55L987.045 1587.08C986.921 1587.41 986.803 1587.74 986.674 1588.07C979.656 1605.88 962.212 1621.61 960.073 1640.84C959.239 1648.34 960.194 1656.52 960.571 1664.05L941.237 1663.84C941.91 1653.28 942.932 1642.92 939.942 1632.56C935.958 1618.77 911.427 1591.66 913.076 1583C918.87 1580.56 927.181 1581.4 933.458 1581.45Z"/>
	<path fill="#012C3C" d="M951.845 1614.16C954.659 1606.99 958.351 1599.05 962.719 1592.72C965.695 1588.41 970.027 1583.63 975.485 1582.76C979.124 1582.18 984.032 1582.47 987.028 1584.55L987.045 1587.08C983.1 1588.67 979.167 1590.26 975.284 1592L974.557 1590.96L975.775 1586.53L974.767 1585.36C971.741 1585.5 965.446 1593.79 963.101 1596.35L965.055 1599.28C964.651 1599.69 964.236 1600.1 963.842 1600.52C959.823 1604.83 958.481 1611.22 954.546 1615.89L952.917 1615.92L951.845 1614.16Z"/>
	<path fill="#76A98E" d="M1119.42 350.155C1120.33 350.067 1122.15 349.852 1123.01 349.935C1125.8 350.205 1127.79 352.907 1129.04 355.197C1133.97 364.241 1133.25 379.445 1130.07 389.02C1124.21 406.671 1110.73 416.794 1094.73 424.639L1091.32 424.464C1087.89 422.461 1085.99 419.215 1084.66 415.551C1080.38 403.786 1081.86 387.783 1087.38 376.792C1094.24 363.118 1105.38 355.112 1119.42 350.155Z"/>
	<path fill="#EE7B85" d="M1280.59 1036.06C1282.11 1035.94 1284.03 1035.66 1285.52 1035.95C1290.2 1036.83 1293.16 1041.07 1295.26 1044.97C1298.6 1051.15 1297.24 1058.83 1298.29 1065.61C1300.88 1082.33 1309.23 1103.39 1303.98 1120.11C1302.17 1125.89 1299.46 1128.93 1294.17 1131.7C1293.01 1131.73 1291.61 1131.84 1290.45 1131.61C1286.36 1130.82 1283.76 1128.48 1281.52 1125.06C1271.57 1109.85 1265.38 1067.57 1269.86 1049.88C1271.66 1042.78 1274.34 1039.67 1280.59 1036.06Z"/>
	<path fill="#DEB242" d="M708.728 822.5C718.972 821.723 727.44 823.024 736.501 827.954C737.795 834.707 738.059 841.578 738.494 848.427C736.515 852.232 734.332 855.176 731.106 858.034C721.543 866.506 711.743 871.142 698.858 870.334C690.685 869.268 683.195 867.636 676.515 862.518C672.275 859.27 669.109 854.767 668.476 849.377C667.871 844.218 669.711 839.022 673.105 835.139C681.725 825.275 696.434 823.577 708.728 822.5Z"/>
	<path fill="#7BBDA7" d="M1462.82 535.314C1469.65 534.532 1478.8 535.475 1484.49 539.645C1488.29 542.427 1490.45 546.508 1491 551.152C1491.91 558.801 1488.63 566.54 1483.84 572.361C1475.51 582.495 1463.89 587.612 1451.05 588.623C1446.95 589.012 1441.76 588.836 1437.88 587.317C1429.33 583.97 1425.84 574.82 1422.53 567.007C1423.82 562.475 1425.28 558.272 1428.08 554.419C1436.4 542.92 1449.25 537.469 1462.82 535.314Z"/>
	<path fill="#689E61" d="M1396.66 474.255C1407.57 473.596 1413.81 474.597 1422.92 480.875C1424.23 483.374 1425.68 485.934 1426.24 488.73C1427.24 493.722 1425.67 499.123 1422.89 503.294C1414.66 515.615 1397.71 521.147 1383.9 523.892C1375.52 524.46 1367.58 524.84 1359.85 520.899C1356.53 519.208 1353.63 516.596 1352.65 512.886C1351.2 507.401 1353.33 501.37 1356.39 496.816C1365.29 483.565 1381.75 477.349 1396.66 474.255Z"/>
	<path fill="#76A98E" d="M1176.78 1010.44C1191.54 1014.14 1206.56 1034.16 1213.89 1046.49C1224.04 1063.56 1227.76 1084.77 1222.96 1104.09C1220.35 1104.12 1217.77 1104.16 1215.23 1103.48C1201.77 1099.9 1191.91 1087.36 1185.55 1075.63C1174.23 1054.79 1170.07 1033.48 1176.78 1010.44Z"/>
	<path fill="#012C3C" d="M546.136 1581.49C551.274 1581.27 556.415 1581.47 561.555 1581.59C561.466 1587.23 560.91 1592.78 560.34 1598.39C547.735 1599.57 535.228 1599.84 522.577 1600.01C522.411 1604.46 522.446 1608.93 522.41 1613.39C529.881 1614.08 546.689 1611.48 551.736 1617.15C555.051 1620.87 553.523 1627.45 553.109 1631.97C544.441 1633.45 535.501 1632.99 526.926 1634.47C523.812 1635 522.715 1635.39 520.982 1638.02Q521.362 1652.24 520.969 1666.46C514.445 1665.63 507.93 1664.4 501.415 1663.45C501.837 1636.76 502.425 1610.27 502.204 1583.58C516.792 1581.98 531.477 1581.85 546.136 1581.49Z"/>
	<path fill="#EE7B85" d="M1396.39 839.324C1404.22 838.603 1411.57 838.623 1419.35 839.948C1431.71 842.053 1446.85 847.764 1454.02 858.573C1456.62 862.486 1457.79 867.153 1456.6 871.765C1454.62 879.444 1447.16 885.188 1440.79 889.236Q1439 889.763 1437.17 890.157Q1435.34 890.551 1433.49 890.81Q1431.64 891.069 1429.77 891.191Q1427.91 891.313 1426.04 891.298Q1424.17 891.283 1422.3 891.131Q1420.44 890.979 1418.59 890.69Q1416.75 890.402 1414.93 889.978Q1413.1 889.555 1411.32 888.999C1400.98 885.865 1392.07 879.649 1387 869.909C1384.29 864.709 1382.68 857.982 1384.79 852.29C1386.81 846.836 1391.07 841.643 1396.39 839.324Z"/>
	<path fill="#DEB242" d="M1001.83 303.671C1004.64 303.136 1007.49 302.566 1010.36 302.971C1016.15 303.79 1021.76 307.658 1025.19 312.295C1033.77 323.871 1034.31 340.054 1032.03 353.797C1029.96 366.283 1026.06 376.29 1015.54 383.853C1012.45 384.006 1010.44 383.955 1007.66 382.468C997.983 377.286 991.507 367.183 988.367 356.88C984.326 343.618 985.365 325.277 992.347 313.129C994.585 309.236 997.269 304.895 1001.83 303.671Z"/>
	<path fill="#3F9CA4" d="M607.625 706.182C615.335 705.447 618.398 706.281 625.082 710.215C627.257 713.351 629.621 716.876 629.699 720.832C629.776 724.773 627.786 728.471 625.106 731.243C611.742 745.07 577.359 750.44 558.647 750.346C554.904 750.17 551.268 749.917 547.822 748.309C542.651 745.896 536.654 742.396 534.672 736.712Q534.477 736.145 534.345 735.56Q534.213 734.976 534.145 734.38Q534.077 733.785 534.074 733.185Q534.071 732.586 534.132 731.99Q534.194 731.393 534.32 730.807Q534.446 730.221 534.635 729.652Q534.823 729.083 535.072 728.538Q535.321 727.993 535.628 727.478C537.898 723.602 542.053 721.055 546.116 719.411C556.575 715.178 568.847 714.289 579.932 712.274C589.239 710.582 598.43 708.386 607.625 706.182Z"/>
	<path fill="#013946" d="M1361.63 1580.26C1376.9 1579.68 1385.99 1585.16 1397.5 1594.39C1393.42 1600.06 1388.29 1605.04 1383.49 1610.11C1380.45 1606.92 1377.3 1603.02 1373.34 1600.97C1368.7 1598.55 1363.41 1597.57 1358.4 1599.37C1352.01 1601.66 1346.72 1607.65 1344.08 1613.76C1341.53 1619.66 1341.89 1626.14 1344.27 1632.03C1346.56 1637.68 1350.51 1642.44 1356.28 1644.71C1370.5 1650.31 1373.04 1642.04 1383.59 1637.53C1384.14 1637.3 1384.69 1637.09 1385.25 1636.87C1390.68 1639.81 1393 1643.56 1396.07 1648.7C1391.02 1654.61 1385.74 1659.13 1378.44 1662.05C1368.77 1665.92 1357.27 1665.76 1347.81 1661.36C1337.24 1656.45 1327.9 1646.49 1324 1635.48C1320.5 1625.63 1321.67 1614.61 1326.49 1605.41C1333.88 1591.29 1347.12 1584.75 1361.63 1580.26Z"/>
	<path fill="#76A98E" d="M1164.07 575.014C1168.44 577.132 1169.95 579.622 1171.64 584.219C1178.21 602.018 1172.96 632.185 1164.79 648.909C1158.67 661.434 1151.06 666.849 1138.29 671.16C1134.86 669.519 1132.96 665.987 1131.7 662.565C1125.38 645.36 1129.09 620.628 1136.75 604.282C1142.53 591.935 1150.86 579.9 1164.07 575.014Z"/>
	<path fill="#3F9CA4" d="M703.926 484.188C706.593 483.969 709.335 483.77 712.009 483.946C725.868 484.861 740.854 497.616 749.451 507.745C755.737 515.152 762.41 524.998 761.256 535.159C760.347 543.152 755.843 546.394 749.925 551C747.738 551.601 745.861 552.001 743.578 551.841C729.512 550.855 714.295 540.642 705.591 529.949C698.743 521.535 692.626 509.465 694.183 498.401C695.142 491.587 698.568 488.093 703.926 484.188Z"/>
	<path fill="#DEB242" d="M694.177 930.23C698.251 929.739 703.484 928.706 707.125 930.931C710.924 933.252 713.828 937.629 714.771 941.939C715.718 946.27 715.019 951.057 712.409 954.702C705.938 963.735 649.381 980.782 636.548 982.738C632.294 983.636 626.336 982.664 622.587 980.417C619.808 978.753 617.865 976.502 616.988 973.38C615.723 968.879 616.908 964.009 619.279 960.085C631.171 940.398 673.459 934.688 694.177 930.23Z"/>
	<path fill="#012C3C" d="M1608.01 1581.6C1626.71 1581.17 1645.44 1581.93 1664.17 1581.46L1664.07 1599.72Q1644.7 1600.17 1625.37 1598.87C1625.27 1604.49 1625.9 1609.82 1626.62 1615.39Q1642.82 1616 1658.93 1614.2C1659.24 1618.95 1660.59 1626.05 1656.73 1629.66C1651.34 1634.71 1633.91 1632.57 1626.68 1632.88C1625.87 1634.34 1624.82 1636.46 1624.52 1638.08C1624.01 1640.8 1624.56 1641.39 1626 1643.53C1636.17 1648.63 1653.01 1645.27 1664.21 1644.36C1664.45 1650.38 1664.22 1656.49 1664.18 1662.52Q1636.01 1663.59 1607.83 1663.83C1605.76 1636.86 1607.03 1608.63 1608.01 1581.6Z"/>
	<path fill="#013946" d="M1446.71 1581.02C1450.25 1580.65 1455.01 1579.92 1458.29 1581.49C1460.72 1582.65 1491.84 1656.56 1494.28 1663.97C1487.39 1663.93 1481.27 1664.29 1474.49 1665.6C1472.42 1660.61 1471.27 1652.35 1467.29 1648.66C1464.72 1646.28 1462.3 1647.42 1459.21 1647.88Q1446.91 1648.13 1434.65 1649.13C1433.32 1654.11 1432.57 1659.3 1431.64 1664.37L1411.06 1661.76C1415.02 1649.56 1420.96 1638.75 1426.17 1627.1C1433.03 1611.75 1439.37 1596.14 1446.71 1581.02ZM1449.31 1610.72C1447.01 1617.29 1444.49 1623.75 1441.9 1630.22C1446.93 1630.44 1451.94 1630.71 1456.97 1630.64L1459.87 1629.81C1460.24 1624.81 1453.52 1615.2 1450.16 1611.48C1449.9 1611.2 1449.59 1610.97 1449.31 1610.72Z"/>
	<path fill="#012C3C" d="M611.443 1581.16L617.513 1581.02C618.315 1581.43 619.268 1581.63 619.919 1582.25C623.641 1585.81 653.42 1654.98 657.532 1664.83C650.65 1664.34 643.714 1664.25 636.817 1664.01C635.241 1659.54 633.593 1651.71 629.511 1649.04C626.535 1647.1 622.43 1648.46 619.19 1649.09C613.361 1651.33 601.647 1646.96 597.644 1650.33C593.964 1653.42 594.465 1659.45 594.191 1663.87L573.755 1663.97C576.992 1649.69 600.269 1589.07 611.443 1581.16ZM612.69 1609.58C610.207 1614.41 604.739 1622.12 605.008 1627.46C606.437 1629.46 606.682 1630.01 609.338 1630.31C611.521 1630.55 614.045 1630.23 616.25 1630.12L620.032 1629.77C621.346 1627.46 620.705 1625.8 619.891 1623.28C618.713 1619.64 615.401 1612.16 612.69 1609.58Z"/>
	<path fill="#7BBDA7" d="M1504.9 747.836C1506.08 747.788 1507.19 747.705 1508.36 747.835C1517.91 748.887 1583.41 777.176 1587.91 784.065C1589.66 786.754 1590.38 790.759 1589.88 793.896C1588.81 800.657 1582.68 804.851 1577.63 808.726C1571.12 811.441 1565.54 810.809 1558.77 809.275C1541.85 805.436 1505.22 788.583 1496.18 773.234C1493.86 769.299 1492.55 764.571 1493.83 760.064C1495.55 753.996 1499.71 750.912 1504.9 747.836Z"/>
	<path fill="#EE7B85" d="M1331.55 1033.08C1335.57 1033.78 1339.63 1034.99 1342.07 1038.5C1348.29 1047.47 1351.94 1059.5 1357.14 1069.23C1365.9 1085.6 1377.67 1101.38 1384.33 1118.69C1385.64 1122.12 1385.64 1124.27 1384.87 1127.85C1383.25 1135.36 1378.34 1139.53 1372.14 1143.49C1368.24 1143.55 1364.43 1143.41 1360.85 1141.66C1357.52 1140.03 1354.79 1137.27 1352.74 1134.21C1344.73 1122.2 1329.66 1082.73 1324.05 1067.76C1321.27 1060.37 1316.51 1048.24 1320.3 1040.72C1322.59 1036.18 1327 1034.55 1331.55 1033.08Z"/>
	<path fill="#013946" d="M1177.92 1580.61L1190.84 1582.04C1202.47 1609.14 1216.7 1635.05 1224.79 1663.58C1218.11 1663.76 1211.41 1664.2 1204.73 1664.54C1202.63 1659.56 1202.05 1651.83 1198.41 1647.84C1196.43 1645.68 1194.23 1646.31 1191.62 1646.37C1184.79 1647.53 1171.85 1645.64 1166.74 1650.41C1163.19 1653.73 1162.96 1659.87 1162.3 1664.41C1155.6 1664.18 1148.91 1663.63 1142.22 1663.16C1148.99 1638.84 1164.89 1602.32 1177.92 1580.61ZM1182.4 1610.57C1178.87 1616.87 1176.07 1622.86 1173.8 1629.75L1188.23 1631.32L1191.45 1630.83C1192.55 1628.19 1191.95 1625.96 1190.94 1623.31C1189.19 1618.71 1186.67 1613.22 1182.4 1610.57Z"/>
	<path fill="#76A98E" d="M988.389 591.728C989.01 591.714 989.631 591.671 990.252 591.687C996.946 591.867 1004.02 596.984 1008.46 601.675C1022.23 616.2 1030.51 640.794 1029.8 660.65C1029.39 672.278 1025.61 682.272 1017.06 690.246C1008.08 690.299 1002.13 687.729 995.509 681.506C982.299 669.091 974.864 649.976 974.725 632.026C974.613 617.533 977.951 602.324 988.389 591.728Z"/>
	<path fill="#EE7B85" d="M1371.96 1010.32C1374.99 1009.93 1378.39 1009.27 1381.42 1009.82C1384.3 1010.35 1386.27 1011.65 1388.43 1013.55C1400.24 1023.98 1410.22 1038.13 1420.67 1049.98C1429.67 1060.19 1440.08 1069.63 1447.91 1080.8C1452.37 1087.16 1454.9 1093.74 1453.21 1101.65C1451.92 1107.67 1448.97 1110.7 1443.95 1113.97C1441.34 1115.08 1438.73 1115.86 1435.87 1115.52C1431.91 1115.05 1427.12 1112.49 1424.27 1109.71C1414.52 1100.24 1407.3 1087.06 1399.12 1076.18C1391.73 1066.34 1383.39 1057.29 1375.55 1047.81C1369.73 1040.78 1362.72 1032.11 1363.96 1022.46C1364.66 1016.92 1367.7 1013.6 1371.96 1010.32Z"/>
	<path fill="#DEB242" d="M875.36 239.036C878.418 238.962 881.441 238.84 884.351 239.938C896.752 244.612 908.289 273.073 913.329 284.466C920.198 299.993 933.149 328.184 925.856 345.174C923.541 350.568 919.818 352.064 914.607 354.155C911.899 353.247 908.841 352.383 906.612 350.529C897.278 342.766 867.171 278.524 862.859 264.203C861.736 260.474 861.588 256.416 861.364 252.547C862.301 250.407 863.239 248.221 864.462 246.226C867.208 241.744 870.4 240.275 875.36 239.036Z"/>
	<path fill="#689E61" d="M1317.16 257.189C1319.16 257.226 1321.13 257.285 1323.11 257.586C1327.46 258.247 1331.91 261.03 1334.32 264.737C1336.83 268.619 1337.29 273.787 1336 278.174C1331.54 293.308 1315.18 313.179 1306.61 327.322C1300.34 337.683 1295.16 349.199 1287.89 358.883C1285.4 362.188 1282.85 364.048 1279.24 366.005C1275.64 366.076 1271.87 365.923 1268.54 364.407C1264.37 362.512 1261.5 359.206 1260.18 354.821C1256.44 342.324 1265.39 324.31 1271.11 313.386C1280.94 294.619 1295.97 263.77 1317.16 257.189Z"/>
	<path fill="#013946" d="M1538.73 1583.48C1543.84 1583.29 1548.99 1583.02 1554.11 1583.16C1561.85 1583.38 1569.32 1586.14 1574.61 1592C1579.51 1597.43 1581.42 1604.87 1580.99 1612.06C1580.33 1623.28 1574.47 1629.36 1566.43 1636.18C1572.25 1645.21 1578.36 1654.13 1583.09 1663.8L1563.94 1664.22L1559.72 1658.57C1555.5 1651.66 1550.49 1642.84 1542.63 1639.87C1541.12 1640.14 1540.12 1639.94 1539.09 1641.21C1534.81 1646.51 1536.87 1657.79 1537.43 1664.26L1519.65 1664.05C1515.68 1638.08 1517.72 1610.07 1517.84 1583.8C1524.79 1583.97 1531.78 1583.63 1538.73 1583.48ZM1536.55 1600.1L1535.5 1620.83C1543.23 1621.05 1551.69 1622.17 1559.01 1619.22C1560.64 1614.95 1562.85 1609.45 1560.36 1605.04C1558.54 1601.81 1554.4 1600.58 1550.97 1600.12C1546.29 1599.49 1541.26 1599.93 1536.55 1600.1Z"/>
	<path fill="#DEB242" d="M745.876 344.162C748.226 344.056 750.645 343.918 752.991 344.135C765.52 345.295 822.467 392.442 831.695 404.069C835.43 408.775 837.544 414.244 836.592 420.325C835.538 427.053 831.435 431.42 826.037 435.139C806.151 429.142 747.765 390.221 737.302 371.731C733.245 364.56 734.204 358.883 736.514 351.252C739.471 348.426 742.377 346.277 745.876 344.162Z"/>
	<path fill="#EE7B85" d="M1413.05 960.076C1417.31 960.792 1421.38 961.876 1425.29 963.767C1442.69 972.2 1489.03 1005.79 1501.18 1021.06C1503.91 1024.49 1505.27 1028.27 1506.7 1032.35C1506.05 1035.92 1505.34 1039.72 1503.8 1043.04C1501.29 1048.46 1496.85 1050.21 1491.51 1052.07C1490.15 1051.98 1490.11 1052.02 1488.54 1051.64C1470.42 1047.31 1455.25 1026.47 1440.37 1015.84C1431.06 1009.19 1419.8 1004.66 1411.1 997.275C1407 993.788 1403.46 989.638 1400.98 984.837C1398.9 980.822 1397.6 976.362 1399.22 971.959C1401.57 965.606 1407.36 962.836 1413.05 960.076Z"/>
	<path fill="#689E61" d="M1436.89 367.336C1441.09 367.063 1445.58 366.614 1449.52 368.429C1453.48 370.249 1456.41 374.379 1457.67 378.456C1459.04 382.836 1458.1 387.488 1455.93 391.435C1453.07 396.62 1448.42 400.711 1443.66 404.12C1429 414.612 1382.88 437.903 1365.8 442.551C1361.44 443.194 1357.79 443.476 1353.77 441.368C1349.76 439.264 1345.07 434.798 1344.23 430.179C1343.53 426.299 1345.19 422.504 1347.31 419.357C1356.46 405.764 1419.58 370.534 1436.89 367.336Z"/>
	<path fill="#DEB242" d="M719.707 981.11C720.153 981.026 720.594 980.913 721.044 980.858C729.123 979.859 735.901 985.413 742.115 989.763C744.714 996.41 746.271 1002.64 747.226 1009.7C741.694 1020.01 733.402 1028 727.418 1037.92C715.531 1057.62 709.391 1091.37 687.432 1101.96C684.025 1102.46 681.069 1102.82 677.7 1101.89C674.007 1100.88 669.888 1099.53 668.021 1095.88C660.748 1081.68 685.078 1048.78 693.751 1036.46C696.317 1032.81 699.931 1029.01 701.848 1025C705.71 1016.92 703.68 1007.01 706.381 998.476C706.889 996.872 707.662 995.17 707.438 993.439C707.087 990.727 706.055 989.379 703.811 987.894C701.731 986.518 702.841 987.566 701.571 986.208C707.293 983.98 713.763 982.702 719.707 981.11Z"/>
	<path fill="#DEB242" d="M770.315 1012.07C774.781 1011.9 777.981 1012.4 781.619 1015.14C786.614 1018.9 789.236 1025 790.065 1031.06C792.8 1051.07 770.524 1112.43 758.395 1128.39C755.485 1130.26 753.292 1129.88 750.02 1129.63C742.863 1127.7 734.993 1123.01 731.049 1116.53C726.75 1109.47 726.121 1100.66 728.402 1092.81C731.874 1080.87 740.775 1070.68 745.681 1059.21C750.795 1047.25 752.199 1033.57 758.843 1022.25C761.876 1017.09 765.087 1014.88 770.315 1012.07Z"/>
	<path fill="#7BBDA7" d="M1592.66 607.361C1601.72 605.797 1615.92 605.258 1623.95 610.105C1627.74 612.39 1631.23 616.036 1632.14 620.503C1633.15 625.481 1631.72 630.763 1628.77 634.828C1618.76 648.655 1592.56 649.633 1577.04 652.178C1569.1 653.48 1561.24 655.233 1553.27 656.328C1544.89 657.995 1530.1 662.626 1522.34 657.778C1517.94 655.03 1515.42 650.298 1514.55 645.276C1513.55 639.414 1514.85 633.144 1518.51 628.4C1526.44 618.123 1579 608.904 1592.66 607.361Z"/>
	<path fill="#3F9CA4" d="M557.325 485.111Q558.892 484.909 560.472 484.857Q562.051 484.805 563.629 484.905Q565.206 485.004 566.767 485.253Q568.327 485.501 569.857 485.898C591.715 491.575 641.562 528.354 652.371 548.03C654.972 552.764 656.645 558.212 654.912 563.54C653.187 568.842 648.108 571.054 643.462 573.308C641.185 573.736 638.955 574.183 636.635 573.796C632.747 573.148 627.362 569.528 624.049 567.353C613.527 560.447 604.301 551.566 593.982 544.336C582.159 536.053 568.924 529.134 557.824 519.912C553.923 516.671 550.242 512.863 547.811 508.374C545.735 504.539 544.649 500.212 546.098 495.969C548.032 490.304 552.236 487.702 557.325 485.111Z"/>
	<path fill="#3F9CA4" d="M505.799 627.142C510.329 626.489 514.758 626.637 519.291 627.221C530.294 628.638 541.111 631.788 551.981 633.986C569.292 637.486 590.28 638.449 606.019 646.489C610.559 648.809 614.597 652.868 615.933 657.888C617.046 662.069 616.412 666.337 614.104 670.002C611.028 674.889 606.861 677.456 601.37 678.852C586.983 680.932 530.995 670.89 514.939 666.634C506.767 664.468 498.355 661.593 494.129 653.61C491.747 649.11 490.781 642.845 492.527 637.974C494.665 632.008 500.403 629.51 505.799 627.142Z"/>
	<path fill="#689E61" d="M1389.22 296.229C1392.2 296.036 1395.44 295.729 1398.37 296.445C1402.41 297.435 1405.54 299.65 1407.66 303.241C1410.77 308.487 1412.06 314.842 1410.24 320.741C1408.79 325.443 1405.24 329.636 1402.03 333.278C1394.1 342.264 1384.34 349.839 1375.6 358.044C1365.78 367.274 1356.69 377.466 1346.02 385.757C1342.16 388.76 1337.93 391.055 1333.62 393.35C1330.5 394.739 1326.77 396.586 1323.28 395.43C1319.25 394.096 1315.15 389.823 1313.43 385.997C1311.2 381.051 1311.76 375.555 1313.69 370.613C1319.16 356.612 1361.37 314.463 1374.81 304.205C1379.27 300.807 1384.15 298.539 1389.22 296.229Z"/>
	<path fill="#013946" d="M743.052 1581.19C749.265 1581.04 755.513 1581.18 761.73 1581.18C762.476 1603.93 759.32 1643.87 763.259 1663.94L744.929 1663.83L744.19 1646.25Q743.88 1632.51 743.742 1618.76C733.925 1629.32 728.356 1642.59 719.314 1653.73C706.415 1643.96 701.028 1631.19 693.93 1617.12C693.447 1633 694.583 1649.23 695.097 1665.13C689.386 1664.44 683.643 1664.34 677.898 1664.15C677.389 1648.23 678.213 1632.21 678.188 1616.27C678.171 1605.2 676.989 1593.49 678.255 1582.55L680.288 1581.41L692.777 1581.21C702.212 1594.43 712.148 1609.78 719.086 1624.44C726.331 1609.62 735.503 1595.86 743.052 1581.19Z"/>
	<path fill="#7BBDA7" d="M1067.44 1722.36C1076.27 1722.88 1084.59 1724.56 1091.68 1730.2C1098.6 1735.72 1102.54 1744.02 1103.32 1752.77C1104.35 1764.28 1099.54 1775.98 1091.89 1784.46C1083.98 1793.24 1074.87 1796.1 1063.48 1796.91C1054.73 1796.79 1046.67 1795.44 1039.39 1790.16C1031.47 1784.41 1027.07 1775.23 1025.94 1765.65C1024.75 1755.64 1027.6 1745.97 1033.97 1738.15C1042.53 1727.65 1054.46 1723.65 1067.44 1722.36Z"/>
	<path fill="#689E61" d="M618.816 378.225C632.101 378.488 644.479 381.648 657.534 383.034C662.931 383.607 668.794 382.413 673.972 384.227C682.69 387.281 689.954 397.568 693.796 405.624C698.818 416.154 703.816 435.457 699.88 446.504C697.32 448.795 694.933 448.893 691.625 449.676C677.217 450.081 661.779 448.449 648.637 442.125C629.896 433.107 617.976 415.385 611.298 396.135C609.746 391.66 607.821 386.151 610.006 381.634C612.52 379.282 615.571 378.946 618.816 378.225Z"/>
	<path fill="#DEB242" d="M797.8 269.007C801.983 268.994 805.746 269.376 809.619 271.081C824.017 277.418 864.721 335.13 871.024 350.775C873.61 357.195 874.913 364.81 871.919 371.34C869.619 376.353 865.605 378.503 860.638 380.295C857.899 380.417 854.134 380.914 851.519 380.059C848.102 378.943 844.538 374.883 842.152 372.293C833.863 363.296 827.052 352.778 819.288 343.311C809.555 331.444 797.442 320.229 789.957 306.739C785.991 299.592 782.439 290.319 785.171 282.125C787.289 275.769 792.071 271.995 797.8 269.007Z"/>
	<path fill="#3F9CA4" d="M520.196 548.256C529.539 548.337 537.752 550.799 546.397 554.156C561.524 560.028 610.181 584.013 621.213 594.044C625.032 597.517 626.814 602.321 628.853 606.94C624.934 615.148 621.634 619.229 613.632 623.832C603.754 624.307 595.79 621.01 586.801 617.38C573.303 611.929 560.786 604.888 547.67 598.659C536.831 593.511 524.01 589.906 514.291 582.843Q513.621 582.352 512.986 581.816Q512.352 581.279 511.757 580.699Q511.162 580.119 510.609 579.499Q510.056 578.879 509.548 578.221Q509.04 577.564 508.58 576.872Q508.119 576.181 507.709 575.458Q507.298 574.736 506.939 573.987Q506.58 573.238 506.274 572.465C504.469 567.801 504.008 561.062 506.421 556.529C509.243 551.226 514.868 549.833 520.196 548.256Z"/>
	<path fill="#7BBDA7" d="M1531.24 686.102C1540.02 685.545 1549.67 687.589 1558.48 688.307C1580.87 690.132 1604.21 689.494 1625.86 696.226C1633.34 698.552 1642.45 702.589 1646.01 710.091C1647.73 713.728 1647.66 718.146 1646.29 721.885C1643.99 728.21 1638.28 731.985 1632.5 734.804C1618.19 738.304 1540.6 728.411 1528.53 721.246C1521.86 717.287 1519.86 710.341 1517.86 703.375C1520.53 695.726 1524.32 690.422 1531.24 686.102Z"/>
	<defs>
		<linearGradient id="gradient_2" gradientUnits="userSpaceOnUse" x1="1043.4301" y1="1638.283" x2="1119.7141" y2="1602.7888">
			<stop offset="0" stop-color="#002334"/>
			<stop offset="1" stop-color="#013E4D"/>
		</linearGradient>
	</defs>
	<path fill="url(#gradient_2)" d="M1062.07 1582.46C1079.76 1581.71 1099.8 1579.9 1113.69 1592.89C1122.03 1600.69 1128.43 1611.35 1128.64 1623.02C1128.9 1636.91 1118.61 1647.31 1109.67 1656.65C1094.66 1668.19 1068.97 1664.35 1051.22 1663.87C1054.07 1643.79 1053.24 1604.51 1051.88 1583.61L1062.07 1582.46ZM1074.39 1601.26C1072.35 1602.75 1072.29 1602.87 1071.95 1605.51C1070.27 1618.87 1071.23 1634.35 1071.23 1647.88C1080.01 1647.22 1088.4 1646.87 1096.54 1643.12C1101.75 1637.75 1106.5 1630.72 1106.47 1622.92C1106.46 1617.45 1104.13 1612.55 1100.14 1608.87C1092.81 1602.12 1083.91 1600.98 1074.39 1601.26Z"/>
	<path fill="#76A98E" d="M747.187 1745.49C784.101 1745.47 820.997 1746.39 857.913 1746.01C896.315 1745.61 937.475 1743.9 975.724 1745.83C978.558 1745.97 982.775 1746.1 985.259 1747.68C987.69 1749.23 987.772 1749.97 988.535 1752.59C988.036 1754.36 988.036 1755.52 986.639 1756.84C983.93 1759.4 980.48 1759.89 976.904 1760.17C964.982 1761.12 952.031 1759.52 939.921 1759.68C902.992 1760.15 866.188 1760.81 829.25 1760.32Q738.424 1760.08 647.613 1758.35C628.825 1757.83 608.967 1759.38 590.358 1757.45C587.255 1757.13 584.993 1756.66 582.646 1754.48C582.125 1752.2 582.039 1752.18 583.072 1750.1C585.241 1748.67 587.096 1748.07 589.644 1747.76C594.25 1747.2 598.999 1747.57 603.637 1747.34C621.166 1746.45 638.569 1746.09 656.12 1746.08Q701.656 1746.11 747.187 1745.49Z"/>
	<path fill="#76A98E" d="M1201.38 1746.06Q1247.69 1743.72 1294.06 1743.87C1320.19 1744.2 1346.37 1745.87 1372.49 1745.58L1497.22 1745.06C1517.46 1744.9 1538.52 1742.88 1558.65 1744.13C1562.56 1744.37 1564.49 1745.8 1567.56 1747.96C1574.83 1748.62 1580.89 1748.86 1587.88 1751.27C1588.71 1751.55 1589.56 1751.82 1590.4 1752.09C1551.06 1758.77 1512.41 1757.86 1472.74 1758.28L1347.51 1759.48Q1301.09 1760.09 1254.67 1759.86C1235.52 1759.81 1216.08 1760.28 1197.03 1758.23C1188.31 1758.99 1164.85 1763.44 1157.5 1758.56C1154.87 1756.82 1154.75 1755.97 1153.94 1753.1C1154.48 1750.89 1154.56 1749.97 1156.34 1748.4C1164.32 1741.33 1190.99 1745.54 1201.38 1746.06Z"/>
	<path fill="#76A98E" d="M1066.09 604.499C1055.71 582.809 1051.66 561.045 1053.14 536.966C1054.38 516.748 1059.43 492.914 1075.43 479.055C1079.22 475.774 1084.76 470.512 1089.91 470.859C1095.26 474.093 1099.27 480.578 1102.17 486.056C1116.49 513.014 1110.76 562.383 1102.33 590.789C1089.54 597.717 1077.75 598.868 1066.09 604.499Z"/>
	<path fill="#EE7B85" d="M1506.78 395.78C1507.21 395.855 1507.64 395.88 1508.06 396.007C1510.17 396.652 1511.35 398.435 1512.16 400.358C1516.56 410.675 1498.57 451.571 1493.41 462.538C1512.9 451.632 1519.36 439.079 1544.01 435.191C1551.41 434.025 1558.49 433.906 1564.77 438.413C1565.4 439.683 1566.08 440.335 1565.79 441.811C1563.37 454.062 1535.9 453.741 1526.56 461.003C1524.12 462.896 1522.63 464.758 1522.24 467.909C1523.58 469.95 1524.71 470.673 1527.12 471.282C1532.34 472.599 1565.08 464.937 1569.33 462.263C1572.06 460.34 1574.79 457.895 1578.36 459.258C1579.91 459.847 1581.01 460.592 1581.74 462.074C1582.96 464.569 1582.75 466.988 1581.84 469.544C1578.66 478.483 1568.18 484.135 1560.13 488.122C1534.16 500.981 1501.53 506.307 1473.61 496.021C1470.93 495.037 1468.72 493.686 1467.59 490.982C1462.57 478.921 1471.31 447.739 1476.54 435.676C1482.98 420.788 1490.75 402.131 1506.78 395.78Z"/>
	<path fill="#164955" d="M1550.32 1348.48C1557.24 1346.43 1563.78 1343.59 1570.98 1345.67C1573.77 1347.73 1574.54 1350.02 1575.1 1353.31C1578.44 1372.92 1566.42 1477.78 1578.58 1486.4C1582.93 1489.49 1592.3 1488.78 1594.96 1492.47C1595.41 1495.62 1595.47 1496.95 1594.2 1500C1590.82 1503.58 1587.47 1503.94 1582.73 1504.14C1574.35 1504.48 1528.28 1505.29 1522.61 1504.23C1520.7 1503.88 1519.73 1503.2 1518.24 1502.03C1517.24 1499.92 1516.79 1499.41 1517.88 1497.09C1520.37 1491.77 1526.93 1489.13 1531.94 1487.04C1533.21 1466.31 1532.61 1445.51 1533.05 1424.75C1533.38 1408.92 1534.92 1392.64 1534.07 1376.86C1533.94 1374.42 1533.77 1371.62 1532.25 1369.57C1531.9 1369.1 1531.46 1368.7 1531.07 1368.27C1531.36 1366.58 1531.72 1364.79 1532.45 1363.22C1534.83 1358.16 1542.72 1354.59 1547.74 1353.12L1548.87 1352.8L1550.77 1352.24L1552.04 1351.88L1551.43 1351.58L1551.79 1349.9L1550.32 1348.48Z"/>
	<path fill="#82B07F" d="M1138.41 715.963C1143.1 709.315 1148.38 700.708 1157 699.097C1170.28 696.612 1177.19 699.227 1185.78 685.3C1186.56 684.042 1186.44 683.198 1186.56 681.82C1187.32 672.886 1206.74 645.089 1212.71 637.953C1216.52 633.392 1221.5 629.32 1226.09 625.558C1238.54 615.349 1265.95 600.441 1281.5 597.535C1283.06 597.957 1283.94 597.684 1284.66 599.312C1289.9 611.106 1279.12 647.738 1273.42 659.787C1259.88 688.422 1237.96 703.773 1208.66 714.109C1205.19 715.335 1201.72 716.523 1198.17 717.51C1196.67 712.522 1193.5 703.348 1188.84 700.489C1184.27 697.691 1175.58 701.301 1170.85 702.771C1167.8 703.72 1166.09 703.906 1162.85 703.521C1147.27 701.67 1149.63 714.269 1138.41 715.963Z"/>
	<path fill="#7BBDA7" d="M937.647 1205.09C908.647 1206.83 879.532 1208.09 850.581 1210.46C816.304 1213.27 650.112 1232.38 629.814 1225.28L629.139 1223.84C640.563 1212.29 779.016 1189.48 803.42 1186.11C844.122 1180.48 885.433 1178.65 925.8 1170.46C926.908 1172.57 927.179 1172.83 929.212 1174.09L930.377 1174.1C930.328 1174.1 930.279 1174.09 930.231 1174.08C929.627 1173.96 929.07 1173.67 928.476 1173.5C925.231 1172.58 915.274 1174.31 912.227 1175.95C911.199 1176.5 911.121 1176.7 910.459 1177.47L909.804 1177.02C910.104 1177.3 910.448 1177.53 910.776 1177.77C919.083 1184.03 919.035 1202.07 920.99 1203.16C922.874 1204.21 929.162 1202.62 931.748 1203.1C933.742 1203.48 935.762 1204.35 937.647 1205.09Z"/>
	<path fill="#164955" d="M397.087 1348.59C398.16 1350.21 399.256 1351.78 399.662 1353.73C401.332 1361.7 400.109 1372.03 399.989 1380.25C399.77 1395.4 395.961 1480.88 401.766 1488.73C404.073 1491.86 409.547 1492.29 413.045 1493C416.35 1493.68 419.331 1493.97 422.189 1495.9C423.239 1498.08 423.312 1498.73 422.266 1501.14C420.954 1504.16 417.02 1505.3 414.108 1506.05C403.823 1508.67 349.411 1512.67 341.521 1508.58C339.265 1507.41 338.915 1506.54 338.103 1504.34C338.57 1501.85 338.461 1500.88 340.582 1499.26C345.68 1495.35 354.566 1494.07 356.096 1486.86C357.699 1479.3 357.136 1470.35 357.323 1462.64Q357.952 1430.6 357.888 1398.56C357.942 1391.77 356.994 1381.96 359.158 1375.61L360.788 1374.99C361.995 1371.14 358.612 1366.4 358.953 1361.9C359.86 1359.43 360.864 1358.53 363.071 1357.05C369.941 1352.43 379.735 1347.75 388.222 1349.46C391.058 1350.03 392.953 1350.33 395.753 1349.2C396.207 1349.02 396.642 1348.79 397.087 1348.59Z"/>
	<path fill="#82B07F" d="M938.116 732.687C931.55 727.539 923.94 723.618 916.797 719.325C893.971 705.607 879.553 691.716 869.196 666.79C859.679 643.888 855.179 612.221 864.821 588.745C866.508 589.249 868.199 589.734 869.87 590.293C910.921 604.034 934.177 648.517 952.026 684.488C950.781 693.484 941.929 724.935 938.116 732.687Z"/>
	<path fill="#7BBDA7" d="M1081.58 189.743C1082.88 189.788 1084.21 189.795 1085.5 190.05C1088.7 190.683 1091.25 192.407 1092.51 195.48C1097.36 207.25 1087.07 244.715 1100.87 263.785C1104.43 268.705 1109.49 273.478 1115.59 274.569C1130.06 270.566 1131.6 224.252 1140.69 211.405C1142.34 209.076 1143.89 208.032 1146.7 207.449C1150.16 208.145 1152 209.595 1154.19 212.272C1157.72 216.592 1157.63 221.168 1156.82 226.484C1151.89 258.892 1136.03 297.63 1109 317.329C1102.07 321.489 1093.14 324.48 1085.69 327.929Q1084.05 326.511 1082.48 325.026C1059.97 303.738 1048.32 273.576 1039.92 244.553C1037.65 236.719 1034.48 227.786 1034.54 219.604C1034.56 216.392 1035.14 214.071 1037.52 211.767Q1038.07 211.535 1038.64 211.36Q1039.22 211.185 1039.8 211.069Q1040.39 210.952 1040.99 210.896Q1041.58 210.839 1042.18 210.843Q1042.78 210.847 1043.37 210.911Q1043.97 210.976 1044.56 211.1Q1045.14 211.224 1045.71 211.406Q1046.28 211.589 1046.83 211.828C1057.3 216.432 1062.56 247.953 1065.71 258.298C1067.5 264.172 1069.71 269.667 1072.36 275.205C1077.27 250.273 1066.04 208.987 1081.58 189.743Z"/>
	<path fill="#7BBDA7" d="M1192.52 1169.57C1227.58 1173.88 1493.3 1205.8 1508.6 1222.52C1507.65 1224.59 1508.38 1223.99 1506.27 1224.75C1500.38 1226.86 1494.1 1227.75 1487.86 1227.71C1421.21 1227.3 1346.33 1217.42 1279.33 1211.31C1244.29 1208.12 1208.27 1208.47 1173.57 1202.96C1180.37 1200.08 1187.96 1202.75 1194.15 1199.44C1197.67 1197.56 1199.22 1194.54 1200.11 1190.81C1201.35 1185.63 1202.68 1179.76 1199.87 1175.09C1197.61 1173.56 1196.05 1172.99 1193.33 1172.48C1191.13 1172.06 1190.75 1172.18 1188.99 1170.67L1192.52 1169.57Z"/>
	<path fill="#689E61" d="M1495.88 865.671C1522.4 851.463 1555.88 846.96 1585.69 845.745C1593.96 845.408 1612.47 843.262 1618.54 848.845C1619.34 851.405 1619.95 853.671 1619.06 856.368C1615.19 868 1573.01 865.029 1561.62 871.174C1560.01 873.988 1560.53 874.827 1560.96 877.964L1559.29 879.602C1559.62 885.646 1563.43 890.502 1563.75 896.747C1566.29 913.585 1608.38 919.886 1618.57 934.383C1620.49 937.112 1621.87 940.829 1621.11 944.175C1620.61 946.383 1619.29 948.08 1617.24 949.146C1598.91 958.712 1569.8 938.489 1556.02 926.729C1550.75 922.231 1545.04 914.31 1538.61 911.885C1533.79 922.068 1568.74 949.678 1570.99 962.869C1571.45 965.564 1570.9 966.776 1569.52 969.03C1568.33 969.795 1567.25 970.429 1565.83 970.673C1558.77 971.881 1551.43 968.064 1545.83 964.179C1515.13 942.859 1501.91 900.549 1495.88 865.671Z"/>
	<path fill="#164955" d="M448.334 1308.75C448.389 1309.03 448.45 1309.31 448.5 1309.59C450.007 1318.13 447.619 1326.98 449.575 1335.4C452.393 1327.93 446.07 1315.21 453.72 1309.52C456.822 1307.22 460.731 1305.97 463.999 1303.89C468.072 1301.3 471.063 1298.11 475.616 1296.01C478.405 1294.73 481.97 1293.06 485.045 1294.02C485.248 1294.41 485.442 1294.81 485.653 1295.2C486.496 1296.76 487.462 1298.11 488.519 1299.53C487.288 1320.61 488.495 1341.3 490.322 1362.27C489.772 1363.43 489.678 1363.49 489.367 1364.95C487.755 1372.53 488.173 1453.97 489.209 1464.53C489.575 1468.25 490.412 1471.87 492.487 1475.05C494.896 1478.74 498.755 1481.74 503.166 1482.47C512.078 1483.95 518.157 1474.85 524.951 1470.88C527.324 1469.49 528.805 1469.73 531.358 1470.31C534.039 1472.45 536.237 1474.37 536.447 1478.11C536.764 1483.75 532.086 1489.37 528.359 1493.08C517.032 1504.38 501.164 1508.86 485.427 1508.46C474.954 1508.19 465.817 1504.63 458.694 1496.8C453.642 1491.24 450.213 1484.27 448.441 1477C442.867 1454.13 446.334 1389.14 448.104 1362.72C441.389 1362.71 426.925 1365.41 422.119 1359.95C419.098 1356.51 420.342 1350.51 420.647 1346.29C429.476 1344.35 438.561 1343.86 447.55 1343.1C447.601 1331.69 447.277 1320.12 448.334 1308.75Z"/>
	<defs>
		<linearGradient id="gradient_3" gradientUnits="userSpaceOnUse" x1="1864.5378" y1="1420.0161" x2="1731.7335" y2="1432.3108">
			<stop offset="0" stop-color="#143A44"/>
			<stop offset="1" stop-color="#1F5360"/>
		</linearGradient>
	</defs>
	<path fill="url(#gradient_3)" d="M1824.47 1343.33C1833.23 1342.66 1840.89 1342.91 1848.62 1347.61Q1849.24 1347.99 1849.85 1348.4Q1850.46 1348.81 1851.04 1349.25Q1851.62 1349.69 1852.19 1350.16Q1852.75 1350.63 1853.28 1351.13Q1853.82 1351.62 1854.33 1352.14Q1854.85 1352.66 1855.33 1353.21Q1855.82 1353.76 1856.28 1354.33Q1856.73 1354.9 1857.16 1355.49Q1857.59 1356.08 1857.99 1356.7Q1858.39 1357.31 1858.76 1357.94Q1859.13 1358.57 1859.47 1359.22Q1859.8 1359.87 1860.11 1360.53Q1860.41 1361.2 1860.68 1361.88Q1860.95 1362.56 1861.19 1363.25Q1861.43 1363.94 1861.63 1364.65Q1861.83 1365.35 1862 1366.06C1863.68 1373.28 1862.48 1381.12 1858.31 1387.29Q1857.94 1387.83 1857.55 1388.36Q1857.15 1388.88 1856.73 1389.39Q1856.3 1389.89 1855.86 1390.37Q1855.41 1390.85 1854.93 1391.31Q1854.46 1391.76 1853.97 1392.19Q1853.47 1392.62 1852.95 1393.03Q1852.44 1393.43 1851.9 1393.81Q1851.36 1394.19 1850.8 1394.54Q1850.25 1394.89 1849.67 1395.21Q1849.1 1395.53 1848.51 1395.82Q1847.92 1396.11 1847.32 1396.36Q1846.71 1396.62 1846.09 1396.85Q1845.48 1397.08 1844.85 1397.27Q1844.22 1397.47 1843.59 1397.63Q1842.95 1397.79 1842.3 1397.92Q1841.66 1398.05 1841.01 1398.14C1833.97 1399.2 1824.17 1397.82 1818.48 1393.22C1808.74 1385.38 1815.65 1375.27 1814.84 1365.6C1813.17 1365.45 1812.66 1365.88 1811.3 1366.8C1802.7 1372.61 1800.12 1380.55 1798.46 1390.31C1796.17 1403.82 1793.58 1479.32 1798.64 1488.35C1802.51 1495.26 1812.28 1495.25 1816.47 1501.1C1816.25 1503.85 1815.97 1504.31 1814.42 1506.61C1807.5 1510.57 1799.63 1508.78 1792.01 1508.15C1778.87 1507.41 1748.62 1508.27 1738.25 1504.49C1735.39 1503.45 1735.45 1502.86 1734.2 1500.22C1735.58 1492.59 1747.41 1492.3 1752.34 1486.54C1753.62 1485.06 1754.64 1483.01 1754.94 1481.07C1756.35 1472.2 1755.01 1461.38 1755.13 1452.3C1755.44 1429.06 1757.1 1404.82 1755.57 1381.66C1753.92 1356.72 1742.08 1372.53 1733.06 1362.27C1731.26 1360.22 1731.19 1359.31 1731.43 1356.83C1732.43 1355.37 1733.43 1354.49 1735 1353.71C1741.77 1350.36 1779.52 1343.81 1785.91 1345.99C1791.96 1348.06 1794.71 1354.04 1797.46 1359.3C1805.88 1351.86 1813.22 1345.94 1824.47 1343.33Z"/>
	<path fill="#164955" d="M697.665 1264.26C700.65 1263.78 703.134 1263.53 706.15 1263.84C709.706 1266.15 709.846 1269.37 710.214 1273.43C712.259 1295.98 709.665 1327.06 709.095 1350.52C708.318 1382.53 708.986 1414.58 709.134 1446.6C709.177 1455.88 706.761 1470.79 710.003 1479.18C713.02 1486.98 720.41 1487.77 726.895 1491.34C729.375 1492.7 729.866 1493.64 730.736 1496.27C730.277 1498.11 730.079 1499.61 728.751 1501.05C724.614 1505.56 676.96 1504.63 667.75 1504.94C663.706 1504.91 660.422 1504.76 656.551 1503.54C654.629 1501.65 654.573 1501.8 654.429 1499.13C657.74 1492.24 663.376 1489.89 669.842 1486.5C672.243 1458.34 669.276 1420.67 669.15 1391.63L669.261 1326.82C669.199 1317.7 670.012 1307.48 668.247 1298.54C666.656 1290.49 655.407 1290.59 649.657 1286.53C648.655 1283.78 648.829 1282.54 649.343 1279.76C652.689 1274.9 689.513 1267.1 697.665 1264.26Z"/>
	<path fill="#164955" d="M560.928 1307.65C568.488 1303.56 591.899 1288.71 599.439 1290.33C601.888 1290.85 602.92 1292.23 603.975 1294.38C606.999 1300.53 604.317 1333.87 604.365 1343.08C613.3 1342.8 633.954 1339.99 640.745 1345.55C642.645 1347.11 643.416 1349.11 643.281 1351.54C643.114 1354.55 641.362 1357.49 638.97 1359.25C630.724 1365.31 613.308 1362.31 603.466 1363.1C604.937 1386.55 604.481 1410.37 604.52 1433.86C604.537 1444.66 603.449 1456.37 605.205 1467.02C605.996 1471.81 607.755 1477.14 611.419 1480.53C613.579 1482.52 616.19 1483.36 619.078 1483.2C626.282 1482.81 642.772 1467.83 648.038 1472.93C650.34 1475.16 651.344 1478.65 651.177 1481.81C650.886 1487.34 646.846 1491.89 642.839 1495.31Q641.813 1496.17 640.745 1496.97Q639.678 1497.78 638.572 1498.53Q637.467 1499.28 636.325 1499.98Q635.184 1500.68 634.01 1501.32Q632.836 1501.96 631.631 1502.54Q630.427 1503.12 629.195 1503.64Q627.964 1504.16 626.708 1504.62Q625.453 1505.08 624.176 1505.48Q622.899 1505.88 621.604 1506.21Q620.309 1506.55 619 1506.82Q617.69 1507.09 616.368 1507.29Q615.047 1507.5 613.717 1507.64Q612.387 1507.78 611.052 1507.85Q609.716 1507.93 608.379 1507.94Q607.042 1507.95 605.706 1507.89Q604.37 1507.83 603.038 1507.71C591.774 1506.67 581.969 1502.51 574.848 1493.49C568.837 1485.87 565.086 1476.34 563.32 1466.85C559.92 1448.59 561.25 1408.07 562.42 1388.52C562.858 1381.2 563.976 1373.74 564.07 1366.43C564.099 1364.12 563.945 1362.99 562.088 1361.54C561.039 1360.82 560.191 1360.57 559.723 1359.35C561.988 1355.29 562.468 1351.4 562.861 1346.84L562.981 1345.34L549.732 1344.71Q556.101 1344.3 562.477 1344.05C561.931 1331.93 561.156 1319.77 560.928 1307.65Z"/>
	<path fill="#EE7B85" d="M516.231 784.199C527.391 783.98 538.512 785.352 549.589 786.541C581.903 790.01 613.229 795.418 639.044 816.731C633.501 841.592 621.516 865.143 605.555 884.874C597.911 894.324 576.406 919.985 563.854 920.592C561.612 920.7 559.769 919.395 558.371 917.715C545.462 902.2 590.11 878.304 591.154 864.807L589.664 863.537C576.743 862.65 556.806 874.918 545.308 880.384C535.227 885.662 523.027 894.089 511.193 892.999C506.734 892.588 500.882 890.626 498.48 886.499C497.245 884.378 497.111 882.116 498.016 879.849C504.169 864.428 547.1 857.581 560.706 848.583C563.384 846.812 565.472 844.754 566.02 841.503C559.814 835.85 510.812 857.332 494.832 849.705C491.037 847.894 488.351 845.268 487.041 841.248C487.282 839.21 487.545 838.114 488.753 836.384C498.905 821.85 548.986 823.111 566.159 817.649C568.426 816.928 569.469 815.934 570.692 813.979C567.702 803.853 513.64 806.254 505.999 793.456C505.233 792.173 506 791.378 506.463 790.108C509.615 787.408 512.386 785.756 516.231 784.199Z"/>
	<path fill="#164955" d="M1306.77 1264.25C1311.34 1263.63 1315.63 1263.19 1320.05 1264.68C1323.01 1269.97 1320.3 1411.18 1320.07 1430.55C1319.93 1442.74 1317.18 1464.49 1320.31 1475.44C1324.1 1488.66 1333.96 1483.83 1342.93 1488.56C1343.13 1489.71 1343.54 1491.38 1343.48 1492.59C1343.38 1494.51 1341.33 1497.03 1339.99 1498.35C1337.27 1501.01 1333.25 1502.35 1329.58 1503C1319.37 1504.78 1288.82 1502.56 1275.25 1502.96C1269.75 1503.41 1264.31 1504.39 1259.33 1501.48C1257.62 1499.08 1257.37 1498.53 1257.01 1495.6C1259.99 1491.76 1266.74 1490.18 1270.86 1487.47C1273.74 1485.57 1276.43 1482.66 1277.01 1479.15C1279.69 1463.12 1276.59 1426.52 1276.51 1407.93C1276.38 1376.27 1278.42 1344.39 1277.68 1312.8C1277.56 1307.78 1277.5 1301.55 1275.56 1296.9C1272.24 1288.93 1259.69 1293.36 1255.21 1286.41C1255.11 1284.79 1254.66 1283.34 1255.5 1281.86C1257.04 1279.15 1260.1 1277.59 1262.91 1276.5C1268.84 1274.21 1275.58 1273.33 1281.75 1271.84C1290.31 1269.77 1298.48 1267.18 1306.77 1264.25Z"/>
	<path fill="#164955" d="M1919.79 1341.32C1935.99 1339.55 1955.27 1344.04 1968.26 1354.04C1974.89 1359.15 1980.58 1366.26 1981.45 1374.84C1982.19 1382.2 1979.08 1390.24 1974.11 1395.63C1970.9 1399.11 1966.29 1401.55 1961.5 1401.67C1955.58 1401.82 1950.22 1398.4 1946.07 1394.47C1934.65 1383.64 1949.24 1377.21 1947.6 1366.55C1947.22 1364.08 1945.61 1362.37 1943.51 1361.2C1936.25 1357.14 1924.23 1358.42 1916.41 1360.46L1914.92 1360.85C1910.1 1365.43 1906.25 1370.86 1905.56 1377.66C1903.18 1401.29 1954.56 1429.27 1969.05 1447.37C1977.31 1457.68 1983.68 1470.91 1981.97 1484.41C1980.06 1499.39 1967.51 1514.98 1955.5 1523.72C1936.22 1537.75 1916.11 1539.32 1893.3 1535.63C1882.26 1531.98 1873.16 1527.16 1865.23 1518.51C1856.71 1509.22 1852.19 1497.67 1852.92 1485.02C1853.33 1477.99 1855.58 1471.09 1861.24 1466.56C1867.68 1461.4 1877.34 1459.68 1885.36 1460.96C1889.71 1461.65 1892.21 1463.62 1894.72 1467.1C1895.54 1475.02 1886.28 1478.59 1882.01 1484.34Q1881.57 1484.92 1881.19 1485.54Q1880.82 1486.16 1880.51 1486.82Q1880.19 1487.48 1879.95 1488.17Q1879.71 1488.85 1879.54 1489.56Q1879.37 1490.27 1879.27 1490.99Q1879.17 1491.71 1879.15 1492.43Q1879.12 1493.16 1879.17 1493.89Q1879.23 1494.61 1879.35 1495.33C1880.79 1503.25 1888.66 1509.63 1894.99 1513.9C1901.66 1518.41 1909.18 1521.55 1917.34 1519.77C1925.13 1518.07 1932.33 1512.44 1936.59 1505.81C1939.93 1500.63 1941.17 1494.7 1940.63 1488.59C1937.52 1453.25 1877.43 1442.81 1868.89 1402.93C1866.14 1390.08 1869.13 1375.99 1876.62 1365.21C1886.96 1350.34 1902.51 1344.14 1919.79 1341.32Z"/>
	<path fill="#164955" d="M800.1 1341.33C816.326 1340.2 830.411 1344.26 843.099 1354.4C854.124 1363.21 863.226 1376 864.521 1390.38C865.302 1399.04 862.843 1406.96 857.185 1413.58C838.452 1435.5 802.111 1430.36 776.45 1431.87C777.232 1437.73 778.639 1443.75 780.564 1449.34C784.547 1460.9 791.37 1472.91 802.996 1478.1C811.649 1481.96 822.501 1481.24 831.147 1477.75C841.86 1473.42 848.692 1465.89 852.909 1455.41C855.647 1457.06 858.309 1458.89 860.991 1460.64C862.099 1462.24 862.686 1463.79 863.348 1465.61C862.71 1470.08 861.007 1473.48 858.352 1477.12C847.395 1492.13 833.222 1502.77 814.395 1505.43Q812.787 1505.67 811.169 1505.82Q809.551 1505.97 807.927 1506.05Q806.304 1506.12 804.679 1506.11Q803.053 1506.1 801.431 1506.01Q799.808 1505.92 798.192 1505.75Q796.576 1505.58 794.97 1505.33Q793.365 1505.07 791.774 1504.74Q790.183 1504.41 788.611 1504Q787.038 1503.59 785.489 1503.1Q783.939 1502.61 782.416 1502.04Q780.893 1501.47 779.4 1500.83Q777.907 1500.19 776.449 1499.47Q774.99 1498.75 773.569 1497.96Q772.148 1497.18 770.769 1496.32Q769.389 1495.46 768.054 1494.53Q766.72 1493.6 765.433 1492.61C747.703 1478.87 737.624 1457.73 734.905 1435.78C731.864 1411.24 736.361 1385.65 751.91 1365.89C764.224 1350.25 780.78 1343.52 800.1 1341.33ZM801.719 1358.18C793.074 1361.12 786.974 1365.52 783.048 1373.98C777.846 1385.18 777.917 1400.21 777.498 1412.41Q789.592 1412.53 801.678 1412.05C807.631 1411.68 815.489 1412.36 819.674 1407.35C825.56 1400.3 826.036 1388.22 824.918 1379.56C824.062 1372.93 821.397 1365.28 815.903 1361.04C811.582 1357.71 806.925 1357.41 801.719 1358.18Z"/>
	<path fill="#164955" d="M1660.7 1342.32C1661.31 1342.25 1661.93 1342.18 1662.54 1342.11C1679.7 1340.35 1694.81 1345.12 1708.02 1356.04C1719.54 1365.55 1728.52 1378.86 1729.56 1394.14C1730.15 1402.93 1727.51 1411.03 1721.48 1417.5C1703.06 1437.26 1666.88 1431.07 1642.68 1432.14C1643.08 1441.84 1644.86 1451.15 1649.43 1459.79C1654.4 1469.18 1661.93 1476.97 1672.36 1479.97C1685 1483.61 1702.9 1478.92 1711.2 1468.31C1713.81 1464.97 1716.05 1458.23 1719.49 1456.22L1723.32 1457.7C1724.99 1459.47 1727.45 1461.66 1728.24 1464C1729.89 1468.91 1726.25 1475.92 1723.52 1479.77C1713.81 1493.46 1697.18 1503.2 1680.67 1505.73Q1679.06 1505.97 1677.44 1506.13Q1675.83 1506.29 1674.2 1506.38Q1672.58 1506.46 1670.95 1506.46Q1669.33 1506.46 1667.7 1506.39Q1666.08 1506.31 1664.46 1506.15Q1662.84 1506 1661.23 1505.76Q1659.63 1505.53 1658.03 1505.22Q1656.43 1504.9 1654.86 1504.51Q1653.28 1504.12 1651.72 1503.66Q1650.16 1503.19 1648.63 1502.65Q1647.1 1502.11 1645.59 1501.49Q1644.09 1500.87 1642.62 1500.18Q1641.14 1499.49 1639.71 1498.73Q1638.27 1497.97 1636.87 1497.14Q1635.47 1496.32 1634.12 1495.42Q1632.76 1494.52 1631.45 1493.56C1613.74 1480.56 1603.14 1458.66 1599.91 1437.3C1596.29 1413.25 1600.88 1389.25 1615.55 1369.62C1627.01 1354.28 1641.74 1345.18 1660.7 1342.32ZM1669.21 1359.55C1661.9 1359.78 1657.37 1361.13 1652.28 1366.65C1642.28 1377.48 1641.57 1399.5 1642.43 1413.43L1663.92 1413.1C1671.03 1412.42 1679.54 1412.81 1684.61 1406.96C1690.06 1400.66 1690.09 1390.26 1689.3 1382.38C1688.34 1372.8 1685.18 1366.28 1677.78 1360.23L1669.21 1359.55Z"/>
	<path fill="#164955" d="M249.113 1264.37C254.778 1263.9 265.315 1261.65 269.92 1265.77C272.157 1267.77 272.582 1270.19 273.084 1272.95C270.993 1277.11 265.399 1278.18 261.807 1281.17C260.133 1282.56 258.801 1284.66 258.471 1286.83C257.493 1293.25 257.956 1300.6 257.849 1307.11Q257.478 1330.05 257.348 1353C257.017 1406.92 258.142 1461.06 253.581 1514.83C286.556 1515.58 310.713 1538.05 340.591 1548.04C349.45 1551.01 361.243 1552.55 369.84 1547.97C378.192 1543.52 377.925 1536.42 381.107 1528.74C382.106 1526.33 382.907 1525.71 385.263 1524.76C388.138 1525.22 390.607 1526.35 392.496 1528.64C395.526 1532.3 395.755 1537.54 395.113 1542.03C393.706 1551.89 389.084 1558.67 381.051 1564.29C365.411 1575.22 348.833 1574.97 331.029 1571.74C299.142 1565.94 266.992 1533.93 234.411 1536.92C221.556 1538.1 209.217 1543.55 196.836 1546.87C192.095 1548.15 184.846 1549.94 180.407 1547.38C179.669 1545.57 179.098 1544.18 179.346 1542.17C180.53 1532.53 200.496 1525.66 207.73 1519.66L208.968 1518.63C213.25 1486.95 210.725 1444.77 210.681 1412.16L210.543 1325.81C210.452 1317.77 211.018 1309.6 210.636 1301.59C210.501 1298.76 210.028 1295.91 208.938 1293.28C203.281 1279.63 187.161 1285.02 181.139 1275.76C180.711 1272.94 181.532 1271.53 182.647 1269.01C190.504 1262.46 220.697 1265.82 231.739 1265.7C237.552 1265.63 243.34 1265.03 249.113 1264.37Z"/>
	<path fill="#164955" d="M1169.52 1341.36C1185.76 1340.28 1202.05 1343.12 1215.88 1352.05C1232.57 1362.82 1244.8 1382.97 1248.66 1402.26C1254.26 1430.28 1243.3 1454.01 1227.94 1476.77C1216.99 1493.01 1202.2 1501.49 1183.21 1505.2C1182.9 1505.29 1182.59 1505.4 1182.27 1505.46C1168.52 1507.99 1153.23 1502.74 1141.85 1495.22C1122.43 1482.42 1109.95 1459.86 1105.47 1437.37C1101.13 1415.59 1105.85 1390.59 1118.44 1372.24C1131.09 1353.82 1147.97 1345.27 1169.52 1341.36ZM1178.01 1357.34C1169.84 1358.19 1162.74 1360.62 1157.32 1367.09C1145.79 1380.88 1147.98 1424.06 1150.03 1441.74C1151.68 1455.95 1155.62 1476 1167.41 1485.4C1169.82 1487.32 1172 1488.15 1174.99 1488.67C1182.01 1487.99 1186.37 1486.11 1190.97 1480.63C1206.87 1461.72 1206.04 1421.36 1203.58 1398.32C1202.19 1385.28 1198.55 1369.72 1187.96 1361.01C1184.71 1358.34 1182.14 1357.8 1178.01 1357.34Z"/>
	<path fill="#164955" d="M1011.03 1255.37C1018.98 1254.33 1027.39 1254.64 1035.28 1255.99C1051.55 1258.75 1069.92 1267.16 1079.41 1281.16C1085.39 1289.96 1088.24 1303.43 1085.78 1313.84C1084.41 1319.61 1080.85 1324.76 1075.61 1327.63C1070.39 1330.49 1064.16 1330.68 1058.59 1328.79C1053.75 1327.15 1049.27 1323.73 1047.22 1318.96C1043.78 1310.99 1049.3 1303.68 1051.98 1296.38C1053.54 1292.14 1054.02 1287.98 1051.82 1283.9C1048.21 1277.23 1033.35 1273.78 1026.28 1272.58C1015.03 1270.66 1002.25 1272.43 992.901 1279.33C985.12 1285.06 980.604 1294.5 979.28 1303.92C974.008 1341.47 1016.46 1361.63 1041.76 1379.58C1053.72 1388.07 1065.23 1397.56 1074.12 1409.33C1084.86 1423.55 1090.55 1441.16 1087.96 1458.98C1085.08 1478.93 1071.24 1499.58 1055.17 1511.38C1033.43 1527.34 1008.28 1530.42 982.275 1526.34C971.894 1524.11 962.803 1520.72 953.977 1514.71C939.39 1504.77 926.914 1489.67 923.809 1471.89C922.014 1461.62 923.881 1450.04 930.25 1441.58C934.533 1435.89 940.604 1432.44 947.716 1431.83C952.418 1431.42 956.65 1432.51 960.134 1435.82C972.266 1447.33 951.77 1451.52 952.437 1470.42C952.789 1480.42 958.679 1488.56 965.903 1495.02C976.896 1504.84 990.693 1510.45 1005.6 1509.25C1017.62 1508.28 1028.28 1502.79 1035.97 1493.46C1043.43 1484.39 1046.3 1472.78 1044.81 1461.19C1040.1 1424.55 1000.03 1412.83 974.819 1393.54C955.64 1378.87 942.042 1360.52 939.118 1336.03C936.86 1317.12 943.235 1299.49 955.092 1284.85C968.698 1268.05 989.647 1257.53 1011.03 1255.37Z"/>
	<path fill="#164955" d="M1445.3 1277.46C1455.83 1274.12 1479.81 1264.12 1489.73 1265.29C1492.85 1269.95 1492.92 1276.83 1493.19 1282.31C1494.21 1302.58 1492.43 1322.84 1492.13 1343.1Q1491.6 1391.84 1492.08 1440.57C1492.1 1450.21 1490.09 1474.54 1494.38 1481.66C1496.66 1485.45 1502.55 1486.21 1506.5 1486.99Q1508.72 1487.43 1510.95 1487.84L1507.15 1499.54C1496.75 1500.47 1466.46 1505.29 1458.2 1502.35C1457.29 1496.69 1457.66 1490.97 1457.09 1485.28C1438.14 1497.52 1423.81 1510.28 1399.23 1504.61C1382.82 1500.82 1368.67 1488.77 1360.11 1474.56C1346.91 1452.63 1343.52 1424.12 1349.93 1399.51C1355.15 1379.51 1365.26 1361.93 1383.54 1351.41C1399.41 1342.27 1419.3 1338.97 1437.05 1344.02C1440.88 1345.11 1444.38 1346.61 1447.98 1348.3C1448.15 1337.8 1450.31 1303.12 1444.07 1296.17C1443.83 1295.9 1443.54 1295.69 1443.28 1295.45L1444.36 1294.03C1442.45 1292.07 1441.71 1292.11 1439.01 1291.48L1441.51 1291.15L1439.61 1290.44C1441.88 1288.99 1443.88 1284.73 1445.24 1282.33L1442.61 1280.6C1444.63 1280.15 1445.77 1279.9 1447.56 1278.8L1445.3 1277.46ZM1424.18 1359.43C1419.52 1359.78 1415.86 1360.38 1411.51 1362.06L1409.91 1362.67C1409.59 1362.79 1409.27 1362.92 1408.96 1363.05C1392.73 1383.88 1392.26 1413.3 1395.41 1438.67C1397.03 1451.8 1400.96 1468.2 1412.09 1476.5C1414.64 1478.4 1417.55 1479.55 1420.58 1480.44C1428.85 1479.99 1437.25 1478.98 1443.06 1472.34C1451.63 1462.55 1449.92 1397.4 1448.42 1382.39C1447.67 1374.98 1446.52 1368.58 1440.22 1363.85C1435.43 1360.25 1430.01 1359.55 1424.18 1359.43Z"/>
	<path fill="#DEB242" d="M791.383 815.338C802.884 814.658 815.127 815.736 826.39 818.194C852.211 823.83 875.616 838.916 889.708 861.505Q890.268 862.413 890.805 863.336Q891.342 864.258 891.856 865.193Q892.37 866.128 892.86 867.075Q893.351 868.023 893.818 868.982Q894.285 869.941 894.728 870.912Q895.171 871.883 895.59 872.864Q896.009 873.845 896.404 874.837Q896.799 875.828 897.169 876.829Q897.539 877.83 897.884 878.839Q898.229 879.849 898.548 880.867Q898.868 881.885 899.163 882.91Q899.458 883.936 899.727 884.969Q899.996 886.001 900.239 887.04Q900.483 888.079 900.701 889.123Q900.918 890.168 901.11 891.218Q901.302 892.267 901.468 893.321Q901.633 894.375 901.773 895.433Q901.912 896.491 902.026 897.552Q902.139 898.613 902.226 899.676Q902.313 900.74 902.374 901.805Q902.435 902.87 902.469 903.937Q902.503 905.003 902.511 906.07Q902.519 907.137 902.501 908.204Q902.482 909.271 902.437 910.337Q902.392 911.403 902.321 912.468Q902.25 913.532 902.152 914.595Q902.054 915.657 901.93 916.717Q901.806 917.777 901.656 918.833Q901.506 919.89 901.33 920.942Q901.154 921.995 900.951 923.042Q900.749 924.09 900.521 925.132Q900.293 926.175 900.039 927.211C893.635 954.282 870.647 987.721 846.766 1002.25C837.464 1007.91 826.97 1011.21 816.215 1008.63C797.044 1004.13 773.255 993.754 757.328 981.829C746.176 973.478 730.565 959.302 725.515 946.317C723.005 939.863 722.4 932.598 721.465 925.779C730.995 904.335 747.051 899.795 765.409 888.513C759.78 874.1 752.292 860.576 746.676 846.188C748.054 838.265 749.263 831.675 752.782 824.441C765.158 817.327 777.512 816.562 791.383 815.338Z"/>
	<path fill="#EE7B85" d="M1301.55 821.376C1317.66 820.853 1333.8 822.21 1349.26 827.005C1357.88 829.677 1368.5 834.083 1372.61 842.703C1378.78 855.624 1363.04 874.162 1357.17 885.316C1354.59 890.206 1352.82 895.257 1351.17 900.52C1366.15 912.02 1386.7 922.452 1393.97 940.951C1397.11 948.943 1397.08 957.861 1393.36 965.654C1391.93 968.658 1389.98 971.482 1387.79 973.983C1383.14 979.294 1377.15 983.305 1372.14 988.268C1367.32 993.049 1364.62 998.504 1358.54 1002.14C1347.84 1008.53 1334.54 1011.95 1322.78 1015.94C1314.88 1018.36 1306.5 1021.53 1298.28 1022.47C1286.33 1023.83 1275.84 1021.53 1266.48 1013.87C1239.17 991.504 1213.63 955.014 1210.42 919.167C1208.54 898.11 1215.64 878.011 1229.28 862.015C1248.23 839.782 1272.18 823.772 1301.55 821.376Z"/>
	<path fill="#7BBDA7" d="M1390.13 577.218C1395.46 576.894 1401.47 576.394 1406.62 578.045C1425.87 584.207 1419.44 609.837 1427.5 623.862C1441.3 647.91 1467.1 619.908 1491.24 627.617C1495.84 629.087 1499.23 632.226 1501.32 636.545C1507.15 648.588 1506.89 665.297 1502.67 677.609C1505.58 683.459 1508.31 689.138 1510.36 695.353C1506.19 710.2 1497.41 722.841 1491.43 736.908C1488.38 744.102 1486.39 756.596 1481.52 762.374C1475.79 769.158 1458.25 771.57 1449.76 772.487C1423.77 776.269 1383.83 775.424 1361.03 761.433C1339.33 748.117 1326.12 725.032 1320.36 700.772C1313.84 673.288 1314.73 641.019 1330.09 616.503C1344.24 593.913 1364.69 582.967 1390.13 577.218Z"/>
	<path fill="#689E61" d="M1235 372.46C1259.58 371.63 1275.98 378.388 1296.09 392.067C1305.15 398.231 1328.39 426.42 1333.54 435.765Q1334.61 437.698 1335.51 439.715Q1336.41 441.732 1337.14 443.818Q1337.86 445.904 1338.41 448.044Q1338.96 450.184 1339.32 452.363C1342.22 470.095 1332.89 481.028 1323.42 494.503C1326.48 500.486 1330.22 506.757 1332.3 513.158C1333.6 517.14 1334.22 521.335 1332.15 525.167C1323.46 541.307 1280.27 560.439 1262.24 565.326Q1259.75 565.852 1257.24 566.289C1236.68 569.824 1213.98 562.325 1197.3 550.432C1174.77 534.358 1155.85 512.587 1151.26 484.493C1146.57 455.757 1158.77 433.758 1173.35 410.132C1179.9 399.508 1186.48 388.878 1193.77 378.731C1206.74 374.248 1221.4 373.858 1235 372.46Z"/>
	<path fill="#DEB242" d="M915.861 365.232C925.613 364.99 936.501 364.656 944.394 371.357C954.699 380.105 955.142 395.75 955.927 408.148C958.687 409.906 961.48 411.762 964.443 413.16C983.426 422.119 994.137 407.741 1010.41 401.804C1010.79 401.666 1011.17 401.54 1011.55 401.408Q1012.74 401.996 1013.92 402.605C1023.57 407.626 1029.59 413.681 1032.79 424.317C1040.65 450.412 1035.27 484.055 1022.69 507.827C1009.36 533.028 988.803 552.136 961.28 560.445C960.915 560.588 960.556 560.747 960.185 560.873C940.966 567.368 919.113 564.749 901.153 555.81C875.083 542.836 842.233 502.842 833.646 475.698C828.734 460.171 839.562 434.84 846.732 420.702C859.085 396.34 890.371 373.534 915.861 365.232Z"/>
	<defs>
		<linearGradient id="gradient_4" gradientUnits="userSpaceOnUse" x1="660.742" y1="578.53119" x2="786.79871" y2="730.53241">
			<stop offset="0" stop-color="#4499A0"/>
			<stop offset="1" stop-color="#58B4BC"/>
		</linearGradient>
	</defs>
	<path fill="url(#gradient_4)" d="M767.651 557.025C769.788 557.292 771.876 557.637 773.905 558.391C792.769 565.405 808.798 588.338 817.071 605.817C827.481 627.809 829.212 652.814 820.941 675.76C811.261 702.614 795.183 735.095 768.027 747.566C736.764 761.923 696.416 747.327 666.389 736.178C662.325 735.182 657.925 732.956 654.194 731.044C643.926 725.781 638.587 720.812 635.109 709.613C631.35 697.507 622.729 670.811 625.314 658.544C626.633 652.279 631.337 645.256 634.348 639.603L634.102 638.617L633.711 636.971C631.935 629.747 631.483 624.042 634.021 616.899C636.834 608.983 651.041 585.745 656.326 579.567C659.487 575.871 663.236 572.695 667.7 570.694C695.692 558.147 706.852 594.911 723.355 600.19C726.563 601.216 729.856 600.883 732.772 599.187C741.717 593.986 745.168 581.895 747.98 572.667C754.166 567.134 761.137 562.186 767.651 557.025Z"/>
	<path fill="#3F9CA4" d="M738.696 669.43C749.756 667.791 762.675 670.466 773.571 672.462C756.567 673.244 739.702 675.188 722.646 675.74C718.072 676.801 697.652 681.399 694.403 679.441L695.199 677.535C704.98 669.038 726.041 670.738 738.696 669.43Z"/>
	<path fill="#336F75" d="M1102.33 590.789C1095.28 624.219 1093.66 659.133 1091.11 693.133C1089.11 719.871 1085.7 747.809 1088.03 774.573C1094.88 770.179 1100.45 765.771 1105.83 759.637C1112.28 752.279 1133.61 718.435 1138.41 715.963C1149.63 714.269 1147.27 701.67 1162.85 703.521C1166.09 703.906 1167.8 703.72 1170.85 702.771C1175.58 701.301 1184.27 697.691 1188.84 700.489C1193.5 703.348 1196.67 712.522 1198.17 717.51C1155.69 738.422 1142.63 762.454 1127.98 805.723C1125.91 811.841 1123.54 818.648 1123.92 825.163C1125.54 827.424 1125.81 827.343 1128.5 828.176C1144.47 826.318 1180.34 799.148 1196.01 789.58C1221.58 773.975 1252.06 756.792 1281.72 751.769C1289.07 750.525 1298.52 748.984 1304.73 754.066C1308.11 756.829 1310.5 760.835 1310.68 765.261C1310.82 768.714 1309.4 771.914 1306.96 774.322C1299.73 781.466 1270.02 786.437 1257.37 792.388C1172.47 832.326 1121.05 913.488 1116.81 1006.56C1114.67 1053.58 1118.99 1112.88 1152.45 1149.3C1164.04 1161.92 1176.14 1165.95 1192.52 1169.57L1188.99 1170.67C1190.75 1172.18 1191.13 1172.06 1193.33 1172.48C1196.05 1172.99 1197.61 1173.56 1199.87 1175.09C1202.68 1179.76 1201.35 1185.63 1200.11 1190.81C1199.22 1194.54 1197.67 1197.56 1194.15 1199.44C1187.96 1202.75 1180.37 1200.08 1173.57 1202.96C1147.43 1201.12 1121.05 1202.15 1094.84 1200.98C1077.09 1201.05 1059.36 1201.62 1041.61 1201.76L937.647 1205.09C935.762 1204.35 933.742 1203.48 931.748 1203.1C929.162 1202.62 922.874 1204.21 920.99 1203.16C919.035 1202.07 919.083 1184.03 910.776 1177.77C910.448 1177.53 910.104 1177.3 909.804 1177.02L910.459 1177.47C911.121 1176.7 911.199 1176.5 912.227 1175.95C915.274 1174.31 925.231 1172.58 928.476 1173.5C929.07 1173.67 929.627 1173.96 930.231 1174.08C930.279 1174.09 930.328 1174.1 930.377 1174.1L929.212 1174.09C927.179 1172.83 926.908 1172.57 925.8 1170.46C937.224 1167.65 950.345 1165.81 960.438 1159.5C986.577 1143.15 1000.58 1110.29 1007.1 1081.5C1012.34 1058.29 1013.84 1032.76 1013.37 1009C1011.96 938.618 991.245 898.789 940.441 852.048C921.728 834.831 901.073 818.366 879.928 804.278C864.97 794.311 833.025 777.934 824.065 762.791C821.732 758.848 820.574 754.432 821.947 749.939C823.073 746.249 825.116 743.317 828.664 741.628C834.119 739.031 841.898 742.717 846.739 745.249C859.85 752.106 870.924 762.365 882.896 770.956C893.635 778.663 904.948 785.672 915.906 793.072C936.131 806.73 958.301 823.073 980.87 832.513C985.799 834.575 992.608 837.47 997.82 835.371C998.08 833.98 998.157 833.915 998.086 832.259C997.219 812.17 953.06 747.486 938.116 732.687C941.929 724.935 950.781 693.484 952.026 684.488Q955.532 691.349 959.303 698.068C972.11 721.073 1004.68 782.205 1029.86 789.402C1032.45 788.898 1033.31 787.982 1034.75 785.739C1041.64 774.972 1060.34 685.286 1062.79 668.348C1065.37 650.461 1069.85 621.912 1066.09 604.499C1077.75 598.868 1089.54 597.717 1102.33 590.789Z"/>
</svg>
